<?xml version="1.0" encoding="UTF-8"?>
<!-- Generated by Pixelmator Pro 2.4.5 -->
<svg width="500" height="750" viewBox="0 0 500 750" xmlns="http://www.w3.org/2000/svg" xmlns:xlink="http://www.w3.org/1999/xlink">
    <path id="Ellipse" fill="#000000" fill-rule="evenodd" stroke="none" d="M 185.488205 265.952332 C 54.202309 380.890076 -23.54018 506.83136 11.845488 547.250122 C 47.231152 587.668823 182.345139 527.259277 313.631042 412.321533 C 444.916931 297.383789 522.659424 171.442505 487.273773 131.023743 C 451.888092 90.60498 316.774109 151.014587 185.488205 265.952332 Z"/>
    <path id="BLACKJACK" fill="#ffffff" fill-rule="evenodd" stroke="none" d="M 60.642578 545.199219 L 60.318359 544.826172 C 60.324764 544.733093 59.967617 544.125 59.25 543 C 60.114944 541.983887 61.319572 540.453247 62.863281 538.408203 C 61.657562 536.220764 58.432026 532.117249 53.1875 526.097656 L 33.814453 503.859375 C 29.436785 498.834778 26.2209 495.948425 24.167969 495.199219 C 23.079906 496.059692 21.461054 497.163147 19.310547 498.511719 L 19.246094 498.4375 C 19.072721 498.238495 18.60807 497.506134 17.853516 496.238281 C 18.618963 495.308838 19.275034 494.605682 19.822266 494.128906 C 20.618242 493.435425 21.842327 492.455261 23.496094 491.189453 C 25.149866 489.923615 26.375898 488.943481 27.171875 488.25 C 28.56484 487.036377 30.612017 485.143585 33.314453 482.570313 C 36.016891 479.99707 38.064072 478.104218 39.457031 476.890625 C 44.1334 472.816376 48.12178 470.260345 51.419922 469.224609 C 56.295715 467.689423 60.489204 468.937164 64 472.966797 L 64.974609 474.085938 C 67.575203 477.070831 69.015915 479.906647 69.298828 482.591797 C 69.581734 485.276947 68.678368 488.229919 66.585938 491.453125 C 73.448257 486.874542 79.430489 486.912659 84.535156 491.566406 C 85.37149 492.325439 86.288261 493.277649 87.285156 494.421875 C 88.715485 496.063599 90.166489 498.079834 91.638672 500.472656 C 96.475815 508.334839 93.298904 517.142334 82.105469 526.894531 L 80.388672 528.390625 C 79.244453 529.387512 77.46003 530.853394 75.035156 532.791016 C 72.610291 534.728638 70.801384 536.21759 69.607422 537.257813 C 68.861191 537.907959 67.760216 538.955322 66.304688 540.398438 C 64.849174 541.841553 63.723713 542.910034 62.927734 543.603516 C 62.430244 544.036987 61.668083 544.568298 60.642578 545.199219 Z M 72.582031 527.189453 C 74.392982 527.183472 76.461365 526.166931 78.787109 524.140625 C 81.62278 521.670044 83.44558 519.643555 84.255859 518.0625 C 85.403076 515.662842 85.204254 513.12384 83.658203 510.445313 C 81.609756 507.591919 79.783379 505.244995 78.179688 503.404297 C 76.402611 501.364594 74.893524 499.835022 73.654297 498.814453 C 71.132477 496.723511 68.285851 496.317596 65.111328 497.595703 C 63.235191 498.355164 60.705391 500.120575 57.521484 502.894531 C 56.029026 504.194824 54.579597 505.545532 53.173828 506.945313 L 70.271484 526.572266 C 70.988289 526.986938 71.758873 527.1922 72.582031 527.189453 Z M 108.8125 503.232422 L 108.486328 502.859375 C 108.492737 502.766266 108.137543 502.158203 107.419922 501.033203 C 108.284866 500.01709 109.489502 498.48645 111.033203 496.441406 C 109.567429 493.955475 106.386055 489.900879 101.488281 484.279297 L 82.763672 462.789063 C 78.169304 457.515686 74.974976 454.30249 73.183594 453.150391 C 72.512741 453.384827 70.928436 454.328522 68.429688 455.980469 C 67.988358 456.277466 67.625534 456.461273 67.339844 456.535156 L 66.949219 456.087891 C 66.745308 455.652954 66.414589 455.02182 65.957031 454.195313 C 66.367828 453.662384 66.896233 453.114258 67.542969 452.550781 C 68.388695 451.813965 69.675903 450.78006 71.404297 449.449219 C 73.132683 448.118378 74.395424 447.107544 75.191406 446.414063 C 76.13662 445.590546 77.486229 444.326263 79.240234 442.623047 C 80.994255 440.919861 82.319366 439.678619 83.214844 438.898438 C 84.209816 438.031586 85.145226 437.348572 86.021484 436.847656 L 86.736328 437.667969 L 87.488281 438.982422 C 86.623337 439.998535 85.418701 441.529205 83.875 443.574219 C 85.204338 446.004028 88.361244 450.079651 93.345703 455.800781 L 118.441406 484.603516 C 120.158913 485.46994 122.011536 485.387787 124 484.355469 C 125.019096 483.817627 126.599091 482.617645 128.738281 480.753906 C 131.039093 475.86145 131.619583 470.802612 130.482422 465.580078 C 129.957382 464.374817 129.481689 462.472748 129.052734 459.871094 C 129.017288 459.026886 128.891464 457.778473 128.677734 456.126953 C 128.883133 455.860504 129.086166 455.640198 129.285156 455.466797 L 129.957031 454.880859 C 130.849518 455.503448 131.728821 456.313599 132.595703 457.308594 C 133.982681 458.900543 135.937668 461.39624 138.462891 464.796875 C 140.988113 468.19751 142.945053 470.693207 144.332031 472.285156 L 143.566406 473.214844 C 143.311234 473.524628 143.077042 473.859192 142.865234 474.21875 C 142.858826 474.311829 142.757584 474.44577 142.558594 474.619141 C 140.817398 476.136169 138.152008 478.326355 134.564453 481.189453 C 130.976898 484.052551 128.313461 486.242737 126.572266 487.759766 L 117.019531 496.082031 C 116.323051 496.688843 115.285904 497.656708 113.908203 498.988281 C 112.53051 500.319855 111.468895 501.310791 110.722656 501.960938 C 110.37442 502.264343 109.738503 502.688171 108.8125 503.232422 Z M 49.929688 502.724609 C 50.988052 502.737 52.630775 501.7742 54.855469 499.835938 C 57.939877 497.148651 59.742977 495.052124 60.267578 493.544922 C 61.023209 491.398895 60.288765 488.846008 58.060547 485.886719 C 57.460144 485.097137 56.877918 484.37915 56.314453 483.732422 C 52.586929 479.454041 49.394138 477.59671 46.736328 478.162109 C 44.885807 478.549194 42.442871 480.065033 39.408203 482.708984 C 38.114738 483.835907 36.858257 485.10498 35.638672 486.517578 C 38.919949 490.48465 41.773956 493.862549 44.201172 496.648438 L 49.402344 502.617188 C 49.558342 502.686401 49.733696 502.72229 49.929688 502.724609 Z M 149.449219 467.695313 L 148.798828 466.949219 C 148.297928 466.072968 148.363174 465.141846 148.992188 464.15625 C 148.992188 464.15625 149.651611 463.407501 150.970703 461.908203 C 150.270355 458.492859 148.360336 452.937408 145.242188 445.240234 L 136.90625 424.673828 C 136.109848 422.654846 134.887238 419.694519 133.238281 415.792969 L 130.347656 408.859375 C 129.507919 406.790649 128.711578 405.123291 127.957031 403.855469 C 126.665062 404.280975 125.357193 404.939056 124.033203 405.830078 C 122.68956 404.287842 123.255852 402.525909 125.730469 400.544922 C 127.316025 399.251038 128.055115 398.693268 127.949219 398.873047 C 128.316666 398.290375 128.817261 397.810883 129.451172 397.433594 C 130.227936 397.019379 130.672852 396.675201 130.785156 396.402344 C 131.314667 395.503448 131.853165 394.81662 132.400391 394.339844 L 136.652344 390.632813 L 138.251953 391.865234 C 137.367798 393.160645 136.797653 394.314941 136.541016 395.326172 C 138.040298 396.645233 141.418869 398.865387 146.675781 401.986328 C 146.991989 402.148376 148.678116 403.129333 151.734375 404.929688 L 169.271484 415.115234 C 176.828598 419.470062 182.47644 422.688416 186.214844 424.769531 C 188.335251 425.897522 189.804443 426.629913 190.623047 426.966797 C 191.287506 426.82547 192.112305 426.391296 193.097656 425.664063 C 194.083023 424.936859 194.814697 424.495972 195.292969 424.341797 L 196.007813 425.162109 C 196.365875 426.075287 196.52597 426.635925 196.488281 426.84375 C 196.450592 427.051605 196.085144 427.459625 195.388672 428.066406 C 194.49321 428.846588 193.079025 430.011749 191.148438 431.5625 C 189.21785 433.11322 187.781158 434.29953 186.835938 435.123047 C 185.990219 435.859894 184.716675 437.035126 183.015625 438.648438 C 181.31456 440.261749 180.016571 441.458099 179.121094 442.238281 C 178.07637 443.148499 177.165421 443.812347 176.388672 444.226563 L 175.738281 443.480469 C 175.194031 442.554443 175.278442 441.647797 175.994141 440.761719 C 177.01474 439.522491 177.569321 438.625671 177.654297 438.070313 C 177.739273 437.514984 177.303162 436.690186 176.349609 435.595703 C 175.309372 434.401733 173.31221 432.859711 170.355469 430.972656 C 168.737473 430.019531 165.841751 428.254395 161.669922 425.675781 C 160.631592 426.492889 159.58963 427.357361 158.544922 428.267578 L 151.978516 433.988281 C 150.784546 435.028534 149.562637 436.137787 148.3125 437.314453 C 149.560074 440.253052 151.530487 444.573547 154.224609 450.277344 C 154.96637 451.731384 155.737259 453.115997 156.535156 454.433594 C 157.607422 455.162109 159.470596 454.589935 162.125 452.714844 C 162.665833 452.331177 163.176025 452.062347 163.654297 451.908203 C 164.911255 453.350891 164.569107 454.917023 162.628906 456.607422 C 161.932434 457.214233 160.865997 458.099823 159.429688 459.263672 C 157.993378 460.427551 156.926956 461.31311 156.230469 461.919922 C 155.633484 462.440033 154.772232 463.234406 153.646484 464.302734 C 152.520737 465.371033 151.659485 466.165436 151.0625 466.685547 C 150.565002 467.118988 150.026978 467.454468 149.449219 467.695313 Z M 146.357422 433.109375 L 157.699219 423.228516 L 146.300781 415.568359 C 143.573578 413.743896 139.772675 411.239166 134.894531 408.050781 L 140.574219 420.296875 C 141.346497 421.986847 143.274689 426.25647 146.357422 433.109375 Z M 204.712891 414.898438 C 200.503525 414.904724 196.412399 413.193756 192.439453 409.763672 C 189.261078 407.019592 185.59259 403.25827 181.431641 398.482422 C 176.360489 392.661835 172.214767 386.649078 168.994141 380.441406 C 167.757904 378.018036 167.152084 375.613922 167.175781 373.230469 C 167.280823 367.625732 169.944366 362.54715 175.167969 357.996094 C 177.506149 355.958984 181.519958 353.687622 187.210938 351.179688 L 188.558594 347.904297 C 188.702927 347.165955 188.909775 346.548737 189.177734 346.052734 L 189.550781 345.728516 C 189.849274 345.468445 190.138702 345.347992 190.417969 345.367188 C 192.498444 347.755157 194.452469 349.946991 196.279297 351.943359 C 196.626053 352.341339 197.695908 353.421234 199.492188 355.181641 C 199.492188 355.181641 200.405609 356.179443 202.232422 358.175781 C 202.189072 358.126038 202.681549 358.791748 203.708984 360.171875 L 205.25 362.242188 C 205.044586 362.508667 204.843552 362.72699 204.644531 362.900391 L 204.046875 363.421875 C 203.258789 363.320862 202.096329 362.889435 200.558594 362.128906 C 199.839493 361.705261 198.685135 361.135162 197.097656 360.417969 C 189.197296 356.974823 183.132919 357.095093 178.904297 360.779297 C 176.21788 363.119812 175.184143 365.24707 175.800781 367.160156 C 177.730942 373.09201 181.94577 379.78772 188.447266 387.25 C 194.51532 394.214813 200.674942 399.526733 206.923828 403.183594 C 210.655838 405.357788 214.585693 404.646301 218.714844 401.048828 C 222.495728 397.75473 223.874512 394.365173 222.851563 390.880859 C 222.438828 389.40271 222.102325 388.16394 221.84375 387.164063 C 221.183792 385.201233 220.36972 383.461884 219.398438 381.945313 C 219.027557 381.218292 218.579712 380.252167 218.054688 379.046875 C 218.950165 378.266693 219.882202 377.629272 220.851563 377.134766 L 223.777344 380.492188 C 225.814468 382.830383 227.083084 384.438202 227.583984 385.314453 C 228.62912 387.11673 229.031433 389.084045 228.791016 391.21875 C 228.007202 397.852417 224.903061 403.531433 219.480469 408.255859 C 214.406113 412.676849 209.483505 414.891296 204.712891 414.898438 Z M 241.865234 387.179688 L 241.539063 386.806641 C 241.458786 386.614044 241.375748 386.468628 241.289063 386.369141 L 240.537109 385.054688 C 241.402054 384.038574 242.606689 382.507935 244.150391 380.462891 C 243.161392 378.5242 240.24115 374.769104 235.386719 369.197266 L 216.140625 347.107422 C 211.416214 341.684814 208.137451 338.373749 206.302734 337.171875 C 205.445694 337.393494 204.400131 337.975983 203.166016 338.919922 C 201.931915 339.863831 201.028397 340.408875 200.457031 340.556641 L 200.068359 340.109375 C 199.864456 339.674438 199.533722 339.043304 199.076172 338.216797 C 199.486969 337.683868 199.990906 337.158813 200.587891 336.638672 C 201.533112 335.815125 202.945313 334.648071 204.826172 333.140625 C 206.706985 331.63324 208.094742 330.49115 208.990234 329.710938 C 209.885696 328.930786 211.174133 327.720215 212.853516 326.082031 C 214.532898 324.443848 215.794907 323.256348 216.640625 322.519531 C 217.138123 322.086121 217.721695 321.752045 218.392578 321.517578 L 218.71875 321.890625 C 218.972412 322.282227 219.352066 322.871094 219.859375 323.654297 C 219.734268 324.113312 219.282669 324.747131 218.501953 325.558594 C 217.721252 326.370056 217.216827 327.049927 216.992188 327.595703 C 218.234848 329.925964 221.284225 333.87738 226.138672 339.449219 L 233.484375 347.880859 C 233.808487 347.248444 233.901566 346.248657 233.761719 344.882813 C 233.621857 343.516937 233.543106 342.623322 233.525391 342.201172 C 233.664825 340.854553 233.452988 337.145905 232.888672 331.074219 C 232.70697 328.957245 232.361221 325.145416 231.851563 319.638672 C 231.668365 318.223083 231.338562 316.891205 230.863281 315.642578 C 230.254974 315.647522 229.558563 315.902832 228.775391 316.410156 C 227.793228 317.090851 227.134262 317.490204 226.798828 317.607422 L 226.150391 316.861328 C 225.93367 316.612579 225.74118 316.340912 225.574219 316.048828 C 226.527328 314.430847 227.252518 313.406067 227.75 312.972656 C 228.396744 312.40918 229.351089 311.621552 230.613281 310.609375 C 231.875458 309.597229 232.805359 308.830627 233.402344 308.310547 C 234.098831 307.703735 235.085083 306.778107 236.363281 305.533203 C 237.641479 304.2883 238.605225 303.383759 239.251953 302.820313 C 239.848938 302.300171 240.36055 301.985809 240.789063 301.875 L 241.439453 302.621094 C 241.64975 302.962921 241.918564 303.471161 242.246094 304.148438 C 241.487045 304.984772 240.399063 306.197205 238.980469 307.783203 C 238.01796 310.897095 237.575073 314.256836 237.654297 317.863281 C 237.779846 320.116699 237.945129 323.518188 238.146484 328.068359 L 238.464844 335.666016 C 238.936707 335.60495 239.647537 335.467163 240.597656 335.251953 C 242.989014 334.48114 245.813599 334.558807 249.070313 335.484375 C 250.354385 335.853302 253.092621 336.837616 257.285156 338.435547 L 267.945313 342.535156 C 274.004608 344.869507 278.62619 346.006775 281.810547 345.945313 C 282.308014 345.511871 282.910339 344.745575 283.617188 343.648438 C 284.324036 342.5513 284.901855 341.808075 285.349609 341.417969 C 285.709137 341.629791 286.019226 341.885101 286.279297 342.183594 L 286.34375 342.257813 C 286.677704 342.84198 286.995453 343.307983 287.298828 343.65625 C 286.98114 344.195587 286.234375 345.547211 285.056641 347.710938 C 283.180908 351.182892 281.571716 353.503571 280.228516 354.673828 C 277.89032 356.710968 275.406097 357.475159 272.775391 356.966797 C 271.298737 356.678101 269.174377 355.948242 266.402344 354.775391 L 257.945313 351.248047 C 256.44455 350.630371 254.057663 349.646515 250.783203 348.298828 C 247.967834 347.076233 245.167648 345.971039 242.382813 344.984375 C 241.837051 344.759766 240.428879 344.851044 238.15625 345.255859 C 237.658768 345.689301 237.397202 346.74762 237.375 348.429688 C 237.383316 350.347656 237.301804 351.556213 237.126953 352.058594 L 244.212891 360.193359 C 249.067352 365.765198 252.61058 369.3302 254.841797 370.886719 C 255.556 370.702026 256.526917 370.159149 257.757813 369.261719 C 258.988739 368.364349 259.816162 367.908356 260.238281 367.890625 L 260.628906 368.337891 C 260.845612 368.58667 261.15329 369.193298 261.554688 370.15625 C 261.305969 370.372955 260.917419 370.754578 260.388672 371.302734 C 259.859894 371.850952 259.44693 372.255585 259.148438 372.515625 C 258.302704 373.252472 256.963898 374.352295 255.132813 375.816406 C 253.301712 377.280457 251.938446 378.403442 251.042969 379.183594 C 250.197235 379.920471 248.959732 381.084839 247.330078 382.679688 C 245.700439 384.274536 244.438446 385.462006 243.542969 386.242188 C 242.995728 386.718964 242.4366 387.031952 241.865234 387.179688 Z M 304.158203 352.039063 C 303.93808 352.044189 303.728973 352.018402 303.53125 351.960938 C 302.271301 351.921051 301.284973 351.643616 300.572266 351.126953 C 300.472778 351.213654 300.358521 351.182465 300.228516 351.033203 C 298.668152 349.242249 299.176788 346.611053 301.753906 343.140625 C 303.694092 341.450195 305.401337 341.451111 306.875 343.142578 C 307.538208 343.323303 307.918549 343.461609 308.023438 343.560547 C 307.976929 343.655304 307.930176 343.749146 307.878906 343.841797 L 307.953125 343.777344 C 308.052612 343.690643 308.080444 343.622009 308.037109 343.572266 C 308.033905 343.568604 308.027466 343.564331 308.023438 343.560547 C 308.994751 341.582367 308.933472 339.150665 307.837891 336.263672 C 307.325684 334.872223 306.290802 333.281219 304.730469 331.490234 L 274.433594 296.714844 C 269.622498 291.192719 266.252014 287.829346 264.324219 286.621094 C 263.653351 286.85553 262.677155 287.442078 261.396484 288.382813 C 260.115845 289.323547 259.144928 289.864502 258.480469 290.005859 C 257.830322 289.259613 257.393494 288.458588 257.171875 287.601563 C 257.582672 287.068634 258.135559 286.49939 258.832031 285.892578 C 259.727478 285.112366 261.07785 284.022827 262.880859 282.626953 C 264.683868 281.23114 266.007782 280.164551 266.853516 279.427734 C 267.84848 278.560852 269.285675 277.22168 271.164063 275.410156 C 273.04245 273.598572 274.453217 272.282501 275.398438 271.458984 C 276.045197 270.895508 276.658539 270.492798 277.236328 270.251953 L 277.560547 270.625 C 277.814178 271.016571 278.195831 271.603546 278.703125 272.386719 C 277.838196 273.402832 276.60907 274.95459 275.015625 277.042969 C 276.004608 278.981659 278.924835 282.738739 283.779297 288.310547 L 300.033203 306.964844 C 301.203491 308.308044 302.952087 310.26358 305.277344 312.832031 C 307.6026 315.400482 309.349274 317.357971 310.519531 318.701172 L 311.560547 319.894531 C 315.331421 324.222656 317.104584 328.366547 316.878906 332.326172 C 316.742889 334.982483 315.609375 338.200653 313.478516 341.982422 C 312.429291 344.996796 310.486053 347.740387 307.650391 350.210938 C 306.276062 351.408325 305.11203 352.016846 304.158203 352.039063 Z M 324.650391 315.052734 L 324 314.306641 C 323.499115 313.430359 323.562378 312.499268 324.191406 311.513672 C 324.191406 311.513672 324.85083 310.764893 326.169922 309.265625 C 325.469574 305.85025 323.561523 300.292877 320.443359 292.595703 L 312.107422 272.03125 C 311.311005 270.012268 310.08844 267.05191 308.439453 263.150391 L 305.548828 256.216797 C 304.709076 254.148071 303.912781 252.47879 303.158203 251.210938 C 301.866241 251.636505 300.55838 252.296509 299.234375 253.1875 C 297.890747 251.645325 298.455048 249.883331 300.929688 247.902344 C 302.515228 246.608459 303.256287 246.05069 303.150391 246.230469 C 303.517853 245.647766 304.018433 245.168274 304.652344 244.791016 C 305.429138 244.37677 305.874023 244.032654 305.986328 243.759766 C 306.515839 242.860901 307.052368 242.174042 307.599609 241.697266 L 311.853516 237.990234 L 313.453125 239.222656 C 312.56897 240.518036 311.99881 241.672394 311.742188 242.683594 C 313.241486 244.002655 316.618103 246.222839 321.875 249.34375 C 322.191223 249.505829 323.87735 250.486755 326.933594 252.287109 L 344.472656 262.472656 C 352.029785 266.827423 357.677643 270.045807 361.416016 272.126953 C 363.536438 273.254913 365.005585 273.987274 365.824219 274.324219 C 366.488678 274.182861 367.313446 273.748718 368.298828 273.021484 C 369.28418 272.29425 370.0159 271.853394 370.494141 271.699219 L 371.208984 272.519531 C 371.567047 273.43277 371.727142 273.993317 371.689453 274.201172 C 371.651764 274.408997 371.284332 274.817017 370.587891 275.423828 C 369.692413 276.20401 368.280212 277.369171 366.349609 278.919922 C 364.419037 280.470673 362.980347 281.656952 362.035156 282.480469 C 361.189423 283.217316 359.915894 284.392548 358.214844 286.005859 C 356.513794 287.619171 355.21579 288.815521 354.320313 289.595703 C 353.275604 290.50592 352.364655 291.167786 351.587891 291.582031 L 350.939453 290.835938 C 350.395203 289.909943 350.479614 289.005219 351.195313 288.119141 C 352.215912 286.879913 352.768524 285.983063 352.853516 285.427734 C 352.938477 284.872345 352.504333 284.045654 351.550781 282.951172 C 350.510559 281.757202 348.513397 280.217072 345.556641 278.330078 C 343.93866 277.376923 341.042938 275.611786 336.871094 273.033203 C 335.832794 273.850311 334.790833 274.71283 333.746094 275.623047 L 327.179688 281.345703 C 325.985718 282.385925 324.763794 283.493256 323.513672 284.669922 C 324.76123 287.608521 326.731659 291.930939 329.425781 297.634766 C 330.167542 299.088776 330.938416 300.47345 331.736328 301.791016 C 332.808594 302.519531 334.671753 301.947327 337.326172 300.072266 C 337.866974 299.688568 338.375244 299.4198 338.853516 299.265625 C 340.110474 300.708344 339.770264 302.274445 337.830078 303.964844 C 337.133575 304.571625 336.067139 305.457245 334.630859 306.621094 C 333.194519 307.784973 332.128143 308.670563 331.431641 309.277344 C 330.834656 309.797485 329.973419 310.591827 328.847656 311.660156 C 327.721924 312.728455 326.860657 313.520905 326.263672 314.041016 C 325.766205 314.474457 325.228149 314.81189 324.650391 315.052734 Z M 321.558594 280.466797 L 332.900391 270.585938 L 321.501953 262.925781 C 318.77475 261.101288 314.971893 258.594635 310.09375 255.40625 L 315.775391 267.652344 C 316.547699 269.342316 318.475891 273.613861 321.558594 280.466797 Z M 379.914063 262.255859 C 375.704681 262.262177 371.613586 260.549255 367.640625 257.119141 C 364.46228 254.375092 360.793762 250.615692 356.632813 245.839844 C 351.561646 240.019257 347.415955 234.004578 344.195313 227.796875 C 342.959076 225.373474 342.351288 222.971313 342.375 220.587891 C 342.480042 214.983154 345.145508 209.904541 350.369141 205.353516 C 352.707306 203.316345 356.7211 201.045044 362.412109 198.537109 L 363.759766 195.261719 C 363.904114 194.523376 364.110931 193.906128 364.378906 193.410156 L 364.751953 193.085938 C 365.050415 192.825928 365.339844 192.705444 365.619141 192.724609 C 367.699585 195.112549 369.651703 197.304443 371.478516 199.300781 C 371.825287 199.69873 372.897095 200.778687 374.693359 202.539063 C 374.693359 202.539063 375.606781 203.536804 377.433594 205.533203 C 377.390228 205.483459 377.882721 206.147156 378.910156 207.527344 L 380.451172 209.597656 C 380.245789 209.864136 380.042755 210.084473 379.84375 210.257813 L 379.248047 210.777344 C 378.459991 210.676331 377.297485 210.246887 375.759766 209.486328 C 375.04068 209.062744 373.886261 208.492615 372.298828 207.775391 C 364.398407 204.332275 358.334076 204.452576 354.105469 208.136719 C 351.419037 210.477234 350.383362 212.604492 351 214.517578 C 352.930145 220.449402 357.146942 227.145142 363.648438 234.607422 C 369.716492 241.572205 375.874176 246.884186 382.123047 250.541016 C 385.855042 252.71524 389.786865 252.003784 393.916016 248.40625 C 397.696899 245.112183 399.075684 241.722595 398.052734 238.238281 C 397.640015 236.760193 397.303497 235.521362 397.044922 234.521484 C 396.384949 232.558655 395.568909 230.817322 394.597656 229.300781 C 394.226776 228.57373 393.778931 227.607605 393.253906 226.402344 C 394.149384 225.622131 395.083374 224.986633 396.052734 224.492188 L 398.976563 227.849609 C 401.013672 230.187805 402.284271 231.795593 402.785156 232.671875 C 403.830292 234.474182 404.232605 236.441528 403.992188 238.576172 C 403.208374 245.209869 400.104248 250.888855 394.681641 255.613281 C 389.6073 260.034271 384.684692 262.248718 379.914063 262.255859 Z M 417.923828 233.789063 L 417.599609 233.416016 C 417.519287 233.22345 417.436279 233.07605 417.349609 232.976563 L 416.597656 231.662109 C 417.462585 230.645996 418.667236 229.115356 420.210938 227.070313 C 419.221954 225.131592 416.299744 221.376526 411.445313 215.804688 L 392.201172 193.716797 C 387.476715 188.294189 384.197998 184.983154 382.363281 183.78125 C 381.506226 184.002869 380.460693 184.585388 379.226563 185.529297 C 377.992493 186.473267 377.088959 187.01825 376.517578 187.166016 L 376.126953 186.71875 C 375.923035 186.283813 375.592316 185.652649 375.134766 184.826172 C 375.545563 184.293213 376.0495 183.766235 376.646484 183.246094 C 377.591675 182.422546 379.00589 181.257446 380.886719 179.75 C 382.767548 178.242615 384.155334 177.098572 385.050781 176.318359 C 385.946259 175.538208 387.232727 174.32959 388.912109 172.691406 C 390.591492 171.053223 391.855438 169.865723 392.701172 169.128906 C 393.198669 168.695435 393.782227 168.361389 394.453125 168.126953 L 394.777344 168.5 C 395.030975 168.891602 395.412598 169.478516 395.919922 170.261719 C 395.7948 170.720764 395.341248 171.356567 394.560547 172.167969 C 393.779816 172.979492 393.277344 173.657349 393.052734 174.203125 C 394.29541 176.533386 397.344788 180.484802 402.199219 186.056641 L 409.544922 194.490234 C 409.869019 193.857849 409.962097 192.858032 409.822266 191.492188 C 409.682434 190.126343 409.603638 189.232727 409.585938 188.810547 C 409.725342 187.463928 409.511597 183.75531 408.947266 177.683594 C 408.765564 175.566589 408.4198 171.754822 407.910156 166.248047 C 407.726959 164.832458 407.399109 163.498596 406.923828 162.25 C 406.315552 162.254883 405.61911 162.512207 404.835938 163.019531 C 403.85376 163.700256 403.194794 164.099609 402.859375 164.216797 L 402.208984 163.470703 C 401.992279 163.221985 401.799774 162.950256 401.632813 162.658203 C 402.585907 161.040222 403.313019 160.015442 403.810547 159.582031 C 404.457245 159.018555 405.411682 158.230957 406.673828 157.21875 C 407.936035 156.206604 408.863953 155.440002 409.460938 154.919922 C 410.15741 154.31311 411.14563 153.387512 412.423828 152.142578 C 413.702026 150.897705 414.663818 149.993164 415.310547 149.429688 C 415.907501 148.909607 416.421082 148.593201 416.849609 148.482422 L 417.5 149.228516 C 417.710327 149.570374 417.979095 150.080566 418.306641 150.757813 C 417.547577 151.594177 416.457642 152.804626 415.039063 154.390625 C 414.076538 157.504517 413.63559 160.866211 413.714844 164.472656 C 413.840393 166.726074 414.003723 170.127563 414.205078 174.677734 L 414.523438 182.275391 C 414.9953 182.214355 415.706116 182.076538 416.65625 181.861328 C 419.047577 181.090515 421.872192 181.168213 425.128906 182.09375 C 426.412994 182.462708 429.151215 183.445068 433.34375 185.042969 L 444.005859 189.144531 C 450.065155 191.478882 454.686737 192.614258 457.871094 192.552734 C 458.368561 192.119324 458.970886 191.35498 459.677734 190.257813 C 460.384552 189.160706 460.960449 188.417419 461.408203 188.027344 C 461.767731 188.239136 462.07782 188.494507 462.337891 188.792969 L 462.404297 188.867188 C 462.73822 189.451355 463.055969 189.917358 463.359375 190.265625 C 463.041656 190.804932 462.294922 192.156616 461.117188 194.320313 C 459.241455 197.792297 457.63031 200.112915 456.287109 201.283203 C 453.948914 203.320313 451.464722 204.084534 448.833984 203.576172 C 447.35733 203.287476 445.232941 202.557617 442.460938 201.384766 L 434.005859 197.855469 C 432.505066 197.237793 430.118164 196.255859 426.84375 194.908203 C 424.028351 193.685608 421.22821 192.580383 418.443359 191.59375 C 417.897644 191.369141 416.487457 191.460388 414.214844 191.865234 C 413.717346 192.298645 413.457764 193.355042 413.435547 195.037109 C 413.443878 196.955078 413.360413 198.165527 413.185547 198.667969 L 420.271484 206.802734 C 425.125916 212.374573 428.669189 215.937622 430.900391 217.494141 C 431.614624 217.309448 432.587463 216.768494 433.818359 215.871094 C 435.049225 214.973694 435.87674 214.515747 436.298828 214.498047 L 436.6875 214.947266 C 436.904236 215.196045 437.213837 215.80072 437.615234 216.763672 C 437.366486 216.980408 436.977966 217.363953 436.449219 217.912109 C 435.920441 218.460327 435.507507 218.862976 435.208984 219.123047 C 434.363281 219.859863 433.024475 220.961731 431.193359 222.425781 C 429.362274 223.889893 427.998962 225.010864 427.103516 225.791016 C 426.257782 226.527832 425.020264 227.694214 423.390625 229.289063 C 421.761017 230.883911 420.49704 232.071411 419.601563 232.851563 C 419.054321 233.328308 418.495178 233.641296 417.923828 233.789063 Z M 472.748047 185.732422 C 472.651642 185.733521 472.554535 185.732239 472.455078 185.730469 C 472.087799 185.723816 471.700012 185.697998 471.291016 185.652344 C 469.109741 185.408752 467.564484 184.765381 466.654297 183.720703 C 465.310669 182.178467 465.016327 179.982178 465.773438 177.134766 C 466.086212 175.987122 466.641479 175.068481 467.4375 174.375 C 467.735992 174.114929 468.164063 174.002625 468.722656 174.041016 C 471.779938 172.42749 474.370361 172.8396 476.494141 175.277344 L 476.623047 175.427734 C 476.660004 175.570618 476.700806 175.667053 476.744141 175.716797 C 477.542023 177.034363 477.91217 178.613647 477.855469 180.457031 C 477.798798 182.300415 477.198914 183.71991 476.054688 184.716797 C 475.296844 185.377136 474.194183 185.71637 472.748047 185.732422 Z M 462.769531 172.558594 C 461.906158 172.577576 460.8078 171.995422 459.474609 170.810547 C 457.015411 168.490051 452.574585 164.396179 446.150391 158.529297 L 438.296875 151.324219 C 436.934021 150.061279 434.261536 147.796448 430.277344 144.529297 C 429.657745 144.018982 429.26123 143.663879 429.087891 143.464844 C 428.56778 142.867859 428.233704 142.284302 428.085938 141.712891 C 428.061829 141.38385 428.003693 140.865967 427.912109 140.158203 C 427.875153 140.015381 427.930817 139.878052 428.080078 139.748047 C 428.306183 138.500916 429.86264 136.621399 432.748047 134.107422 C 435.733002 131.506836 438.010345 130.353394 439.580078 130.648438 C 440.417938 130.706055 441.118225 131.05835 441.681641 131.705078 L 441.746094 131.779297 C 441.819977 132.064941 441.964905 132.333252 442.181641 132.582031 C 442.656921 133.830627 443.600128 135.764343 445.009766 138.386719 C 445.566833 139.126526 447.707123 142.338318 451.431641 148.019531 L 456.007813 154.927734 C 456.30481 155.36908 458.203674 158.353394 461.705078 163.878906 C 462.095154 164.326599 462.608978 165.342407 463.248047 166.929688 C 463.887085 168.516907 464.165741 169.56543 464.083984 170.074219 L 463.96875 171.75 L 463.800781 172.160156 C 463.505402 172.417542 463.161957 172.549988 462.769531 172.558594 Z"/>
</svg>
