<?xml version="1.0" encoding="UTF-8"?>
<!-- Generated by Pixelmator Pro 2.4.5 -->
<svg width="500" height="750" viewBox="0 0 500 750" xmlns="http://www.w3.org/2000/svg" xmlns:xlink="http://www.w3.org/1999/xlink">
    <path id="Ellipse" fill="#000000" fill-rule="evenodd" stroke="none" d="M 185.488205 265.952332 C 54.202309 380.890076 -23.54018 506.83136 11.845488 547.250122 C 47.231152 587.668823 182.345139 527.259277 313.631042 412.321533 C 444.916931 297.383789 522.659424 171.442505 487.273773 131.023743 C 451.888092 90.60498 316.774109 151.014587 185.488205 265.952332 Z"/>
    <path id="BUST" fill="#ffffff" fill-rule="evenodd" stroke="none" d="M 153.949219 470.701172 L 153.552734 470.244141 C 153.560913 470.130371 153.127182 469.38385 152.253906 468.005859 C 153.315018 466.766724 154.792847 464.900848 156.6875 462.40625 C 155.221329 459.7276 151.294373 454.698547 144.904297 447.320313 L 121.298828 420.064453 C 115.964973 413.905731 112.04425 410.364777 109.537109 409.441406 C 108.203781 410.489441 106.219933 411.833679 103.585938 413.474609 L 103.505859 413.382813 C 103.294617 413.138916 102.730423 412.240265 101.8125 410.6875 C 102.751663 409.553986 103.555809 408.69809 104.226563 408.117188 C 105.202202 407.272217 106.704063 406.078674 108.730469 404.537109 C 110.756874 402.995544 112.258736 401.802002 113.234375 400.957031 C 114.941742 399.478333 117.450485 397.171417 120.763672 394.035156 C 124.076866 390.898926 126.587555 388.589996 128.294922 387.111328 C 134.026779 382.147125 138.911346 379.039551 142.947266 377.785156 C 148.913788 375.925903 154.034851 377.465149 158.3125 382.404297 L 159.501953 383.775391 C 162.670578 387.434052 164.421616 390.90567 164.757813 394.189453 C 165.093994 397.473236 163.977966 401.082581 161.408203 405.015625 C 169.814346 399.442749 177.129501 399.508911 183.353516 405.216797 C 184.373245 406.147797 185.490433 407.314301 186.705078 408.716797 C 188.447815 410.729034 190.214661 413.202087 192.005859 416.132813 C 197.891235 425.762329 193.973785 436.518036 180.253906 448.400391 L 178.150391 450.220703 C 176.74791 451.435333 174.561401 453.223877 171.589844 455.583984 C 168.618286 457.944122 166.400955 459.757935 164.9375 461.025391 C 164.022842 461.817535 162.671402 463.092468 160.886719 464.851563 C 159.102051 466.610626 157.723679 467.912842 156.748047 468.757813 C 156.138275 469.285919 155.205231 469.933502 153.949219 470.701172 Z M 168.609375 448.726563 C 170.823395 448.725739 173.356339 447.490387 176.207031 445.021484 C 179.682724 442.011292 181.919693 439.541351 182.916016 437.611328 C 184.327209 434.681702 184.091415 431.577118 182.210938 428.296875 C 179.716873 424.801025 177.493057 421.924103 175.539063 419.667969 C 173.37384 417.167877 171.53479 415.29129 170.023438 414.039063 C 166.947891 411.473663 163.467697 410.966461 159.582031 412.517578 C 157.285599 413.439301 154.187698 415.59082 150.285156 418.970703 C 148.455841 420.555023 146.678772 422.199982 144.955078 423.90625 L 165.789063 447.960938 C 166.66391 448.47049 167.602997 448.726929 168.609375 448.726563 Z M 141.005859 418.734375 C 142.299744 418.753357 144.310287 417.582306 147.037109 415.220703 C 150.817703 411.946442 153.03093 409.389587 153.677734 407.548828 C 154.609268 404.927887 153.717392 401.803711 151.003906 398.177734 C 150.272736 397.210266 149.565445 396.329834 148.878906 395.537109 C 144.337204 390.29306 140.438904 388.011719 137.1875 388.693359 C 134.923721 389.159912 131.93251 391.005127 128.212891 394.226563 C 126.62748 395.59964 125.087921 397.146545 123.591797 398.869141 C 127.58905 403.730988 131.066055 407.870453 134.023438 411.285156 L 140.359375 418.601563 C 140.54985 418.686707 140.766251 418.730865 141.005859 418.734375 Z M 218.521484 407.408203 C 214.473648 407.456116 209.643311 404.758942 204.029297 399.316406 C 202.050812 397.401611 200.190002 395.438049 198.447266 393.425781 C 198.183212 393.120911 197.760605 392.631683 197.179688 391.960938 C 196.448517 390.993469 195.84639 390.236298 195.371094 389.6875 C 195.371094 389.6875 194.340866 388.499207 192.28125 386.121094 L 174.378906 365.449219 C 172.509857 364.400055 170.905228 363.627106 169.568359 363.130859 C 168.231491 362.634583 167.339569 362.312469 166.892578 362.166016 C 165.990448 361.986908 165.247375 361.990967 164.662109 362.177734 C 164.076828 362.364471 163.036591 362.519196 161.541016 362.640625 C 160.748672 362.682404 160.396683 362.820099 160.484375 363.052734 C 160.315384 362.849121 159.857697 362.512085 159.097656 362.037109 C 158.394791 361.471985 158.198669 360.998932 158.511719 360.621094 C 158.487213 360.962463 159.45108 360.28952 161.402344 358.599609 C 162.317001 357.807434 163.788055 356.639221 165.814453 355.097656 C 167.840866 353.556061 169.340759 352.362549 170.316406 351.517578 C 171.231064 350.725403 172.551697 349.477753 174.275391 347.771484 C 175.9991 346.065216 177.317764 344.815582 178.232422 344.023438 C 179.817825 342.65036 181.299759 341.527557 182.677734 340.654297 L 183.548828 341.660156 L 184.462891 343.269531 C 183.59288 344.23645 182.475464 345.842957 181.113281 348.089844 C 182.624084 350.943268 186.389755 355.845459 192.410156 362.796875 L 208.332031 381.181641 C 213.771515 387.46228 219.115662 391.906891 224.361328 394.513672 C 227.563171 396.115967 230.901245 395.410583 234.376953 392.400391 C 239.37709 388.069946 241.85701 382.98819 241.818359 377.152344 C 239.828445 373.006439 235.42778 367.000824 228.615234 359.134766 L 214.199219 342.486328 C 208.548492 335.961761 203.96962 332.031616 200.462891 330.693359 C 198.954803 331.786072 197.123093 332.997833 194.96875 334.330078 L 194.175781 333.416016 C 193.911728 333.111145 193.679642 332.779572 193.476563 332.421875 C 196.302216 328.907532 198.292603 326.647919 199.451172 325.644531 C 200.365829 324.852386 201.824219 323.671692 203.824219 322.099609 C 205.824219 320.527557 207.311478 319.317627 208.287109 318.472656 C 208.835907 317.997375 209.651108 317.213989 210.730469 316.119141 C 211.809814 315.024261 212.6539 314.2117 213.263672 313.683594 C 214.178329 312.891449 215.049713 312.296417 215.878906 311.898438 L 216.75 312.904297 L 217.664063 314.513672 C 216.550125 315.691864 215.099579 317.590485 213.310547 320.207031 C 214.610107 322.816528 217.925903 327.200684 223.259766 333.359375 L 241.716797 354.669922 C 244.7798 358.206604 247.370102 361.5672 249.486328 364.75 C 251.188248 367.331177 252.488174 371.112976 253.388672 376.095703 C 253.148026 378.651825 252.92984 380.493347 252.734375 381.623047 C 252.246017 383.646729 251.49855 385.309265 250.490234 386.609375 C 245.664322 392.496399 242.402328 396.123383 240.703125 397.488281 C 240.08519 398.130157 239.143082 398.890015 237.878906 399.771484 C 236.378967 400.750366 235.417068 401.425262 234.990234 401.794922 C 231.758438 404.593872 228.524109 406.219788 225.289063 406.673828 C 224.248627 406.827911 222.258652 407.057556 219.320313 407.361328 C 219.057419 407.388916 218.791336 407.404999 218.521484 407.408203 Z M 160.484375 363.052734 C 160.522263 363.098389 160.550415 363.137909 160.558594 363.169922 C 160.522324 363.128052 160.498337 363.089783 160.484375 363.052734 Z M 277.205078 364.59375 C 276.880035 364.341675 276.584381 364.062714 276.320313 363.757813 L 275.291016 362.568359 C 274.86853 362.080566 274.268188 361.294312 273.488281 360.208984 C 272.708374 359.123627 272.106079 358.337433 271.683594 357.849609 C 270.680176 356.69104 269.140381 355.037262 267.064453 352.886719 C 264.988495 350.736176 263.4487 349.080444 262.445313 347.921875 C 261.389099 346.702332 259.816345 344.330811 257.724609 340.806641 C 257.862885 340.47345 258.052948 340.201477 258.296875 339.990234 L 259.029297 339.355469 C 259.370667 339.379974 261.970428 340.596405 266.830078 343.003906 C 271.137146 345.143005 276.546234 346.274292 283.056641 346.398438 C 287.055542 346.456696 290.346558 345.635498 292.927734 343.933594 C 293.40741 343.624908 293.677307 343.443451 293.738281 343.390625 L 294.560547 342.677734 C 297.304535 340.301239 299.124451 337.659485 300.019531 334.75 C 301.122009 331.340729 300.563721 328.355957 298.345703 325.794922 C 295.599548 322.624115 291.57489 320.933685 286.271484 320.724609 C 284.162354 320.630432 281.453003 320.95108 278.140625 321.685547 C 275.45816 322.40799 272.748932 323.10025 270.013672 323.761719 C 255.191345 327.101288 245.193008 325.78241 240.017578 319.806641 L 238.75 318.34375 C 234.472351 313.404572 232.834152 307.939148 233.835938 301.949219 C 234.699432 296.292511 237.630722 291.299194 242.630859 286.96875 L 243.636719 286.097656 C 244.055389 285.841766 244.386963 285.607727 244.630859 285.396484 C 247.159241 283.633575 250.78479 281.721069 255.507813 279.658203 L 257.960938 274.171875 L 258.601563 273.617188 C 258.845459 273.405945 259.140717 273.257233 259.490234 273.167969 L 260.125 273.898438 C 261.656525 275.666779 262.421875 276.550781 262.421875 276.550781 C 264.170685 278.677826 264.971497 279.666016 264.826172 279.511719 L 265.974609 280.837891 C 266.713959 281.691559 267.872864 282.876282 269.451172 284.390625 C 271.02951 285.904999 272.161133 287.058838 272.847656 287.851563 C 273.058899 288.095459 273.160492 288.272949 273.152344 288.386719 L 276.40625 293.253906 C 275.9021 293.903961 275.467438 294.386261 275.101563 294.703125 C 274.357849 294.70694 272.104401 293.831146 268.341797 292.074219 C 259.378143 287.885284 252.249527 287.601379 246.957031 291.224609 C 246.774094 291.383026 246.473358 291.591797 246.054688 291.847656 L 244.316406 293.351563 C 243.942368 293.782227 243.665359 294.077881 243.482422 294.236328 C 239.628326 298.534668 239.231903 302.451599 242.294922 305.988281 C 244.354523 308.366394 247.887863 309.734436 252.894531 310.09375 C 253.69104 310.15094 258.118408 309.410553 266.177734 307.873047 C 267.392914 307.674347 269.59314 307.31778 272.775391 306.802734 C 274.112518 306.498413 276.546326 306.043762 280.078125 305.439453 C 289.462067 304.568909 296.265381 306.572998 300.490234 311.451172 L 301.916016 313.097656 C 306.774567 318.707581 308.565491 324.839783 307.287109 331.496094 C 306.049591 337.583466 302.535004 343.137299 296.742188 348.154297 C 293.327454 351.111664 288.410034 353.875031 281.992188 356.445313 C 281.682953 357.566864 280.969818 359.145996 279.851563 361.181641 L 278.917969 363.429688 L 278.277344 363.984375 C 278.033417 364.195618 277.676544 364.398834 277.205078 364.59375 Z M 334.400391 314.257813 C 333.872284 313.648041 333.308075 312.749359 332.707031 311.5625 C 333.10556 310.790466 333.88797 309.845703 335.054688 308.728516 C 336.221436 307.611328 336.972992 306.693817 337.310547 305.974609 C 336.116608 303.487091 332.378174 298.613739 326.09375 291.357422 L 292.269531 252.302734 L 287.970703 256.025391 C 285.550659 261.856323 285.066437 267.397308 286.519531 272.648438 C 287.295349 273.79068 287.996063 275.584534 288.621094 278.03125 C 288.596588 278.37262 288.637115 279.405731 288.742188 281.128906 C 288.770508 281.531219 288.778137 282.21817 288.765625 283.189453 C 288.155853 283.71756 287.474518 284.040588 286.722656 284.158203 C 281.523254 276.922577 277.445679 271.596375 274.488281 268.181641 L 271.794922 265.072266 C 271.860229 264.161987 271.985046 263.627197 272.167969 263.46875 C 275.310486 260.320282 276.908112 258.776917 276.960938 258.837891 L 309.248047 230.875 C 309.552917 230.610962 310.704803 229.292603 312.705078 226.919922 C 314.705353 224.547241 315.739441 223.277954 315.808594 223.111328 L 315.900391 223.03125 C 316.632111 222.397522 317.351379 221.934937 318.058594 221.642578 L 318.771484 222.466797 C 320.514221 224.479065 321.386719 225.484375 321.386719 225.484375 C 321.756378 225.911194 322.256897 226.490906 322.890625 227.222656 C 323.357758 227.885254 323.69696 228.338135 323.908203 228.582031 L 325.333984 230.228516 C 326.60141 231.691956 327.851044 233.01062 329.082031 234.185547 C 331.543976 236.535339 332.827972 237.772522 332.933594 237.894531 C 333.197662 238.199402 333.264893 238.460297 333.134766 238.679688 C 333.601898 239.342285 334.042694 239.974579 334.457031 240.576172 L 335.699219 242.380859 C 335.195068 243.030914 334.729553 243.540466 334.302734 243.910156 C 333.392426 243.844818 331.590363 243.059418 328.896484 241.550781 C 321.928192 237.447876 314.993103 236.462341 308.091797 238.597656 L 303.976563 242.162109 L 339.861328 283.597656 C 345.089569 289.634399 349.07547 293.064728 351.818359 293.890625 C 353.098877 292.781616 355.111572 291.410095 357.859375 289.777344 L 358.255859 290.236328 C 358.467102 290.480255 358.596008 290.688507 358.640625 290.863281 C 358.843719 291.220978 359.112213 291.840668 359.449219 292.722656 C 359.266296 292.881073 358.97287 293.189423 358.568359 293.646484 C 358.163849 294.103546 357.8396 294.437195 357.595703 294.648438 C 356.437134 295.651825 354.660034 297.112 352.263672 299.027344 C 349.86731 300.942657 348.059387 302.428162 346.839844 303.484375 C 345.742249 304.434967 344.102905 305.960175 341.921875 308.0625 C 339.740875 310.164856 338.070679 311.719269 336.912109 312.722656 C 336.058441 313.462006 335.221405 313.973633 334.400391 314.257813 Z M 382.587891 272.240234 C 382.01181 272.248932 381.391083 272.215088 380.724609 272.138672 C 378.058777 271.832977 376.169556 271.03833 375.060547 269.757813 C 373.423431 267.867523 373.073883 265.183502 374.009766 261.705078 C 374.396332 260.303162 375.077118 259.180908 376.052734 258.335938 C 376.41861 258.019073 376.942291 257.884583 377.625 257.933594 C 381.368591 255.971985 384.535339 256.484772 387.123047 259.472656 L 387.28125 259.65625 C 387.325897 259.831024 387.374908 259.948792 387.427734 260.009766 C 388.398438 261.623505 388.84549 263.557098 388.769531 265.810547 C 388.693604 268.063965 387.953247 269.797058 386.550781 271.011719 C 385.636139 271.803864 384.316101 272.214172 382.587891 272.240234 Z M 370.353516 256.099609 C 369.297913 256.11969 367.957611 255.402649 366.332031 253.949219 C 363.333801 251.103424 357.916809 246.082581 350.083984 238.886719 L 340.511719 230.050781 C 338.850098 228.501831 335.589569 225.721619 330.730469 221.712891 C 329.974762 221.086792 329.49054 220.652161 329.279297 220.408203 C 328.645569 219.676514 328.239105 218.960754 328.060547 218.261719 C 328.032227 217.859375 327.964905 217.22699 327.855469 216.361328 C 327.810852 216.186584 327.879547 216.019714 328.0625 215.861328 C 328.343414 214.337402 330.25238 212.043457 333.789063 208.980469 C 337.447693 205.811829 340.236267 204.41095 342.154297 204.777344 C 343.178406 204.85083 344.032196 205.283447 344.71875 206.076172 L 344.798828 206.167969 C 344.888123 206.517517 345.064056 206.84552 345.328125 207.150391 C 345.904663 208.67865 347.049805 211.046692 348.763672 214.257813 C 349.442047 215.164307 352.049072 219.097595 356.582031 226.056641 L 362.150391 234.519531 C 362.511902 235.06012 364.823212 238.714478 369.083984 245.482422 C 369.559296 246.031219 370.183441 247.277863 370.958984 249.220703 C 371.734558 251.163544 372.07251 252.444672 371.970703 253.066406 L 371.824219 255.115234 L 371.615234 255.615234 C 371.253174 255.928802 370.833344 256.090485 370.353516 256.099609 Z"/>
</svg>
