<?xml version="1.0" encoding="UTF-8"?>
<!-- Generated by Pixelmator Pro 2.4.5 -->
<svg width="360" height="540" viewBox="0 0 360 540" xmlns="http://www.w3.org/2000/svg" xmlns:xlink="http://www.w3.org/1999/xlink">
    <path id="Rounded-Rectangle" fill="none" stroke="#ffffff" stroke-width="11" stroke-linecap="round" d="M 294.296875 14.734375 L 300.171875 15.5625 L 310.171875 18.390625 L 319.28125 22.78125 L 324.109375 25.96875 L 327.828125 28.921875 L 332.0625 32.9375 L 335.859375 37.328125 L 338.71875 41.296875 L 341.625 46.25 L 344.09375 51.515625 L 345.984375 56.890625 L 348.109375 67.28125 L 348.5 74 L 348.484375 466.59375 L 347.40625 477.3125 L 346.015625 483.015625 L 344.09375 488.484375 L 340.25 496.203125 L 335.796875 502.71875 L 332.0625 507.046875 L 325.71875 512.796875 L 319.171875 517.28125 L 312.890625 520.5 L 304.546875 523.4375 L 297.3125 524.90625 L 288.828125 525.5 L 71.25 525.5 L 65.6875 525.25 L 59.8125 524.421875 L 49.8125 521.59375 L 40.703125 517.203125 L 35.875 514.015625 L 32.15625 511.0625 L 27.921875 507.046875 L 24.203125 502.75 L 18.984375 494.890625 L 16.453125 489.8125 L 14.4375 484.484375 L 12.078125 474.25 L 11.5 465.859375 L 11.5 74 L 11.890625 67.140625 L 12.84375 61.34375 L 14.40625 55.5625 L 16.453125 50.171875 L 19.015625 45.03125 L 22.0625 40.140625 L 26 35.0625 L 29.9375 30.921875 L 34.328125 27.125 L 38.296875 24.265625 L 43.25 21.359375 L 48.515625 18.890625 L 53.96875 16.96875 L 59.6875 15.578125 L 65.6875 14.734375 L 71.234375 14.5 L 288.765625 14.5 Z"/>
</svg>
