<?xml version="1.0" encoding="UTF-8"?>
<!-- Generated by Pixelmator Pro 2.4.5 -->
<svg width="500" height="750" viewBox="0 0 500 750" xmlns="http://www.w3.org/2000/svg" xmlns:xlink="http://www.w3.org/1999/xlink">
    <path id="Ellipse" fill="#000000" fill-rule="evenodd" stroke="none" d="M 185.488205 265.952332 C 54.202309 380.890076 -23.54018 506.83136 11.845488 547.250122 C 47.231152 587.668823 182.345139 527.259277 313.631042 412.321533 C 444.916931 297.383789 522.659424 171.442505 487.273773 131.023743 C 451.888092 90.60498 316.774109 151.014587 185.488205 265.952332 Z"/>
    <path id="DRAW" fill="#ffffff" fill-rule="evenodd" stroke="none" d="M 141.972656 480.458984 L 141.572266 480.005859 C 141.5793 479.891998 141.139023 479.150421 140.251953 477.78125 C 141.300583 476.531525 142.759384 474.650208 144.628906 472.136719 C 143.40303 469.775146 139.850784 465.269958 133.974609 458.621094 L 104.488281 425.255859 C 102.288269 423.862885 100.45916 422.948547 99 422.515625 C 98.163582 422.178284 96.690079 421.973419 94.580078 421.900391 C 94.017784 421.751404 93.004906 421.945923 91.542969 422.484375 C 90.610985 422.769775 89.931267 422.671051 89.503906 422.1875 C 89.252548 421.78537 88.98024 421.299316 88.685547 420.734375 C 88.868484 420.732452 89.817055 419.973541 91.535156 418.455078 C 92.502266 417.600372 93.991119 416.391907 96.001953 414.830078 C 98.012779 413.268219 99.470291 412.086456 100.376953 411.285156 C 102.129837 409.735992 104.677544 407.351654 108.019531 404.128906 C 111.361526 400.906158 113.879829 398.546539 115.572266 397.050781 C 121.072678 392.189575 125.871124 388.97049 129.96875 387.394531 C 135.770081 385.066437 141.26503 385.377167 146.455078 388.326172 C 151.317581 391.026398 157.141464 396.214203 163.925781 403.890625 C 168.733566 409.330597 173.364746 415.788177 177.818359 423.263672 C 180.511902 427.773132 181.463684 432.260529 180.673828 436.726563 C 179.27121 444.640839 174.58017 452.124359 166.601563 459.175781 L 164.878906 460.697266 C 163.549133 461.872498 161.486053 463.589386 158.689453 465.845703 C 155.892838 468.10199 153.829773 469.816956 152.5 470.992188 C 151.593338 471.793488 150.286575 473.055817 148.580078 474.779297 C 146.873596 476.502777 145.566818 477.765106 144.660156 478.566406 C 143.93483 479.207458 143.039581 479.83902 141.972656 480.458984 Z M 88.685547 420.734375 C 88.656097 420.73468 88.643967 420.716705 88.654297 420.677734 C 88.664574 420.69754 88.675323 420.714783 88.685547 420.734375 Z M 156.994141 459.269531 C 158.442017 458.958801 160.194885 457.894379 162.25 456.078125 C 163.700653 454.796021 164.959595 453.358887 166.029297 451.767578 C 168.489197 448.947601 170.031082 446.670807 170.652344 444.9375 C 171.490067 442.47464 171.107635 439.851105 169.507813 437.066406 C 166.154938 431.201874 161.648834 425.06723 155.986328 418.660156 C 147.546021 409.109955 139.535446 402.300293 131.957031 398.232422 C 129.301559 396.81134 126.562332 396.756683 123.738281 398.068359 C 121.974129 398.873901 119.641556 400.558899 116.740234 403.123047 C 115.047798 404.618805 113.704185 406.021881 112.708984 407.332031 C 111.365158 408.735016 111.814964 410.705475 114.058594 413.244141 C 115.126991 414.453033 115.907516 415.214966 116.402344 415.53125 L 150.539063 454.15625 C 153.316895 457.299347 155.467499 459.003906 156.994141 459.269531 Z M 201.076172 428.222656 L 200.675781 427.769531 C 200.6828 427.65567 200.242523 426.914063 199.355469 425.544922 C 200.404083 424.295197 201.862915 422.41391 203.732422 419.900391 C 201.758667 416.692596 197.699921 411.61319 191.556641 404.662109 L 168.400391 378.458984 C 162.791321 372.112335 158.675858 368.429199 156.052734 367.410156 L 154.873047 368.453125 C 154.087265 369.147583 152.509216 370.164185 150.140625 371.503906 L 150.060547 371.414063 C 149.846863 371.172272 149.2733 370.277832 148.339844 368.734375 C 148.784027 368.01886 149.429169 367.28891 150.275391 366.541016 C 151.363388 365.579468 153.049194 364.196747 155.332031 362.394531 C 157.614853 360.592285 159.300674 359.209595 160.388672 358.248047 C 162.141556 356.698883 164.689255 354.314575 168.03125 351.091797 C 171.37323 347.869049 173.920959 345.482758 175.673828 343.933594 C 188.427521 332.662018 198.35611 331.044891 205.460938 339.083984 C 209.467422 343.617279 211.662964 347.867035 212.046875 351.833984 C 212.430786 355.800934 210.850296 360.105103 207.306641 364.744141 C 210.848999 362.905304 214.009933 362.157104 216.789063 362.5 C 219.280029 362.882263 222.280823 364.268066 225.791016 366.65625 L 234.013672 372.306641 C 236.701477 374.129791 238.762299 375.48468 240.193359 376.373047 C 242.948639 378.0289 245.141922 379.050995 246.775391 379.4375 C 247.440277 378.849884 248.260803 377.829285 249.236328 376.375 C 250.211838 374.920746 251.001038 373.924835 251.605469 373.390625 C 252.10733 373.593048 252.519333 373.875641 252.839844 374.238281 C 253.253159 374.949585 253.700867 375.577087 254.181641 376.121094 C 253.716385 377.178192 253.081894 378.655273 252.279297 380.548828 C 249.888321 385.030365 247.846725 388.017914 246.154297 389.513672 C 244.038742 391.383362 242.367798 392.537933 241.140625 392.976563 C 238.981461 393.700592 236.694931 393.244171 234.28125 391.609375 L 229.185547 388.039063 L 214.869141 376.955078 C 214.4207 376.81311 213.75116 376.542328 212.861328 376.144531 C 210.0737 374.08667 207.67894 373.081024 205.675781 373.128906 C 203.672623 373.176758 201.181229 374.19577 198.201172 376.183594 C 196.853104 376.729065 195.452606 377.641754 194.001953 378.923828 C 193.216171 379.618286 192.393478 380.454071 191.533203 381.429688 L 204.513672 396.117188 C 210.389847 402.766052 214.458282 406.76004 216.71875 408.099609 C 217.650726 407.814209 218.895615 407.090881 220.453125 405.929688 C 222.01062 404.768494 223.138702 404.095734 223.835938 403.910156 L 224.636719 404.816406 C 224.903824 405.118622 225.141006 405.447083 225.347656 405.802734 C 224.292007 407.166321 223.274124 408.390228 222.292969 409.472656 C 222.399811 409.593536 222.270859 409.81424 221.908203 410.134766 C 220.880646 411.042908 219.269897 412.386993 217.074219 414.166016 C 214.87854 415.945038 213.23642 417.313843 212.148438 418.275391 C 211.18132 419.130127 209.738342 420.513397 207.820313 422.423828 C 205.902267 424.33429 204.429886 425.744202 203.402344 426.652344 C 202.979233 427.026276 202.203537 427.549255 201.076172 428.222656 Z M 259.060547 376.816406 L 258.259766 375.908203 C 257.639801 374.841278 257.710266 373.702545 258.470703 372.492188 C 258.470703 372.492188 259.26947 371.570923 260.869141 369.726563 C 259.983368 365.55719 257.601379 358.781494 253.722656 349.398438 L 243.353516 324.328125 C 242.362381 321.86676 240.842697 318.257446 238.792969 313.501953 L 235.199219 305.050781 C 234.154663 302.528961 233.165878 300.496582 232.232422 298.953125 C 230.656616 299.484558 229.064041 300.299652 227.453125 301.400391 C 225.797104 299.526642 226.472305 297.369019 229.480469 294.925781 C 231.407654 293.3302 232.307602 292.642578 232.179688 292.863281 C 232.623871 292.147766 233.232178 291.55658 234.003906 291.089844 C 234.949936 290.576721 235.490067 290.152924 235.625 289.818359 C 236.264572 288.714844 236.917145 287.868866 237.582031 287.28125 L 242.75 282.714844 L 244.714844 284.207031 C 243.645142 285.79834 242.957352 287.212738 242.652344 288.451172 C 244.496719 290.050812 248.645782 292.735931 255.099609 296.505859 C 255.487595 296.701233 257.558594 297.886047 261.310547 300.060547 L 282.837891 312.361328 C 292.114471 317.619812 299.04834 321.505707 303.636719 324.017578 C 306.23877 325.378204 308.041229 326.2612 309.044922 326.666016 C 309.856018 326.487457 310.86026 325.948364 312.058594 325.050781 C 313.256927 324.153168 314.147125 323.608643 314.730469 323.416016 L 315.613281 324.414063 C 316.058929 325.527374 316.259094 326.210419 316.214844 326.464844 C 316.170563 326.719299 315.725098 327.220856 314.878906 327.96875 C 313.790894 328.930298 312.073364 330.36673 309.726563 332.279297 C 307.379791 334.191895 305.632813 335.654938 304.484375 336.669922 C 303.456818 337.578064 301.909393 339.026611 299.84375 341.013672 C 297.778107 343.000763 296.201294 344.473969 295.113281 345.435547 C 293.843964 346.557343 292.737061 347.375549 291.791016 347.888672 L 290.990234 346.982422 C 290.316864 345.855072 290.413971 344.745728 291.28125 343.65625 C 292.51825 342.132385 293.186066 341.031219 293.285156 340.351563 C 293.384247 339.671875 292.845154 338.667664 291.669922 337.337891 C 290.387848 335.887238 287.931854 334.021606 284.300781 331.740234 C 282.314453 330.58902 278.759277 328.454193 273.636719 325.337891 C 272.37439 326.345856 271.109192 327.411377 269.839844 328.533203 L 261.861328 335.583984 C 260.410675 336.866058 258.926331 338.2323 257.408203 339.681641 C 258.958832 343.263397 261.404968 348.528717 264.748047 355.478516 C 265.66745 357.249695 266.620544 358.937103 267.607422 360.541016 C 268.924622 361.422333 271.198883 360.705994 274.427734 358.390625 C 275.085602 357.91687 275.705688 357.583221 276.289063 357.390625 C 277.838226 359.143494 277.433502 361.061157 275.076172 363.144531 C 274.22995 363.892426 272.935303 364.984619 271.189453 366.419922 C 269.443604 367.855225 268.147003 368.947449 267.300781 369.695313 C 266.575439 370.336365 265.529144 371.31308 264.162109 372.628906 C 262.795105 373.944702 261.748749 374.923431 261.023438 375.564453 C 260.418976 376.098663 259.764801 376.516968 259.060547 376.816406 Z M 187.662109 376.537109 C 189.04248 376.553528 191.320831 375.158051 194.494141 372.353516 C 200.719894 366.851288 202.782486 362.122498 200.683594 358.164063 C 198.955856 355.600067 197.370071 353.50116 195.927734 351.869141 C 194.538818 350.297607 192.999741 348.859131 191.308594 347.554688 C 188.634827 345.503845 185.835983 345.016876 182.912109 346.09375 C 181.041122 346.778412 178.533722 348.509277 175.390625 351.287109 C 173.03331 353.370483 171.210327 355.144012 169.919922 356.607422 C 174.393143 361.912476 177.992386 366.106812 180.716797 369.189453 L 187.126953 376.443359 C 187.287552 376.503265 187.46492 376.53476 187.662109 376.537109 Z M 254.980469 334.560547 L 268.761719 322.380859 L 254.761719 313.115234 C 251.411789 310.908386 246.741348 307.877167 240.75 304.021484 L 247.800781 318.943359 C 248.759567 321.002716 251.152359 326.20929 254.980469 334.560547 Z M 347.007813 300.380859 C 346.552338 300.352783 345.776184 299.960449 344.679688 299.207031 C 341.831604 297.202576 336.869537 294.267822 329.792969 290.402344 C 329.077454 289.95816 327.643829 289.126862 325.490234 287.908203 L 310 279.152344 C 307.792938 277.873199 304.977142 276.271423 301.552734 274.345703 L 283.152344 264.123047 C 280.155273 262.680878 277.636261 261.839905 275.59375 261.599609 L 274.6875 262.400391 C 274.083069 262.934601 272.864838 263.68927 271.033203 264.662109 C 270.392181 263.936768 269.82132 262.986267 269.322266 261.8125 C 269.524658 261.310638 269.95816 260.767334 270.623047 260.179688 C 271.771484 259.164734 273.518066 257.728699 275.861328 255.873047 C 278.20462 254.017426 279.951172 252.58139 281.099609 251.566406 C 282.248047 250.551453 283.915436 248.969208 286.105469 246.818359 C 288.295532 244.667511 289.964844 243.085297 291.113281 242.070313 C 292.140839 241.16217 293.125458 240.508636 294.064453 240.109375 L 295.505859 241.740234 C 295.250031 242.181641 294.803619 242.955078 294.164063 244.058594 L 292.548828 246.615234 C 292.792084 248.230408 293.580505 249.793579 294.916016 251.304688 L 295.636719 252.121094 C 296.918793 253.571747 304.726898 258.567322 319.058594 267.109375 C 321.813873 268.765198 326.744629 271.726624 333.853516 275.994141 C 335.37738 277.23111 337.667908 279.030518 340.722656 281.390625 C 338.677185 277.492615 337.055206 274.135406 335.857422 271.318359 C 334.367218 267.683228 331.149933 260.998108 326.207031 251.263672 C 324.674683 248.311707 322.946075 244.832977 321.021484 240.828125 L 320.941406 240.738281 C 316.908295 238.489258 314.587189 237.202209 313.978516 236.878906 C 310.981445 235.436707 308.462463 234.595764 306.419922 234.355469 L 305.513672 235.15625 C 304.909241 235.69043 303.69101 236.445129 301.859375 237.417969 C 301.218353 236.692627 300.647522 235.742126 300.148438 234.568359 C 300.350861 234.066467 300.784332 233.523193 301.449219 232.935547 C 302.597656 231.920593 303.981659 230.804443 305.599609 229.589844 C 305.727509 229.369141 306.034027 229.046509 306.517578 228.619141 C 308.377289 227.190857 311.090057 224.899841 314.65625 221.748047 C 315.932617 220.51239 318.181641 218.307617 321.40625 215.134766 C 321.829346 214.760864 322.249908 214.445618 322.666016 214.185547 C 323.444763 213.604919 324.186371 213.164673 324.890625 212.865234 L 326.332031 214.496094 C 326.076202 214.9375 325.629822 215.710938 324.990234 216.814453 L 323.375 219.371094 C 323.618256 220.986267 324.406677 222.549438 325.742188 224.060547 L 326.462891 224.876953 C 327.744965 226.327637 335.55307 231.323242 349.884766 239.865234 C 352.640045 241.521088 357.57077 244.484436 364.679688 248.751953 C 366.203552 249.988922 368.49408 251.786407 371.548828 254.146484 C 369.503326 250.248505 367.883728 246.862244 366.689453 243.988281 C 365.495178 241.114319 362.275543 234.458252 357.033203 224.019531 C 355.814331 221.544128 353.604279 217.092896 350.400391 210.666016 C 349.227936 208.364929 348.214081 206.730774 347.359375 205.763672 L 346.71875 205.039063 C 345.490112 203.648865 343.967133 202.839539 342.152344 202.613281 L 341.326172 203.505859 C 340.433563 204.079407 339.215332 204.832153 337.671875 205.765625 C 336.817169 204.798523 336.243591 203.906006 335.951172 203.087891 C 336.274445 202.479187 336.739319 201.90918 337.34375 201.375 C 338.847839 200.153381 341.560577 197.862366 345.482422 194.503906 C 346.328644 193.756042 347.484528 192.626953 348.949219 191.117188 C 350.41394 189.607361 351.509033 188.53363 352.234375 187.892578 C 352.899261 187.304932 353.461334 186.966614 353.923828 186.880859 L 354.806641 187.878906 L 355.736328 189.478516 C 354.929474 190.514526 353.741119 192.155945 352.173828 194.402344 C 352.748871 197.123779 354.839874 202.596985 358.447266 210.820313 L 374.222656 246.939453 C 375.97995 250.876831 378.080658 255.264557 380.525391 260.101563 C 380.604156 260.677917 381.150482 261.781891 382.164063 263.416016 C 383.177673 265.05011 383.712433 266.083344 383.771484 266.515625 C 383.830536 266.947876 383.769226 267.244019 383.587891 267.404297 C 383.46698 267.511139 383.219086 267.595612 382.84375 267.658203 C 382.468414 267.720764 382.22049 267.80722 382.099609 267.914063 C 381.978729 268.020905 381.96579 268.24707 382.058594 268.595703 C 382.058594 268.595703 381.688599 269.031616 380.949219 269.900391 L 379.839844 271.203125 C 379.598053 271.416809 379.262177 271.766083 378.832031 272.253906 L 377.833984 273.136719 C 377.37851 273.108612 376.602325 272.718262 375.505859 271.964844 C 372.657776 269.960388 367.695709 267.023682 360.619141 263.158203 C 359.903625 262.71402 358.470001 261.882751 356.316406 260.664063 L 349.273438 256.714844 C 344.357513 253.954193 338.725891 250.75058 332.378906 247.101563 L 331.294922 246.605469 L 343.394531 274.183594 C 345.144806 278.234833 347.247437 282.622559 349.699219 287.345703 C 349.777954 287.922058 350.322327 289.026031 351.335938 290.660156 C 352.349518 292.294281 352.886261 293.327515 352.945313 293.759766 C 353.004364 294.192017 352.943054 294.48819 352.761719 294.648438 C 352.640839 294.75528 352.392914 294.839783 352.017578 294.902344 C 351.642242 294.964905 351.394348 295.049408 351.273438 295.15625 C 351.152557 295.263092 351.139648 295.491241 351.232422 295.839844 C 351.232422 295.839844 350.862427 296.273804 350.123047 297.142578 L 349.013672 298.447266 C 348.771881 298.66095 348.436005 299.010254 348.005859 299.498047 L 347.007813 300.380859 Z"/>
</svg>
