<?xml version="1.0" encoding="UTF-8"?>
<!-- Generated by Pixelmator Pro 2.4.5 -->
<svg width="500" height="750" viewBox="0 0 500 750" xmlns="http://www.w3.org/2000/svg" xmlns:xlink="http://www.w3.org/1999/xlink">
    <path id="Ellipse" fill="#000000" fill-rule="evenodd" stroke="none" d="M 185.488205 265.952332 C 54.202309 380.890076 -23.54018 506.83136 11.845488 547.250122 C 47.231152 587.668823 182.345139 527.259277 313.631042 412.321533 C 444.916931 297.383789 522.659424 171.442505 487.273773 131.023743 C 451.888092 90.60498 316.774109 151.014587 185.488205 265.952332 Z"/>
    <path id="LOSE" fill="#ffffff" fill-rule="evenodd" stroke="none" d="M 171.572266 454.470703 L 171.171875 454.015625 C 171.179153 453.901794 170.741547 453.160126 169.857422 451.789063 C 170.908737 450.541595 172.37117 448.661835 174.246094 446.152344 C 172.439102 443.122009 168.523682 438.184967 162.501953 431.341797 L 139.482422 405.181641 C 133.83371 398.76239 129.909897 394.852814 127.712891 393.455078 C 126.89415 393.745758 124.96286 394.908691 121.917969 396.943359 C 121.380211 397.309113 120.936707 397.538818 120.587891 397.630859 L 120.107422 397.085938 C 119.855515 396.55545 119.449142 395.786987 118.884766 394.779297 C 119.383774 394.125275 120.02523 393.450592 120.8125 392.757813 C 121.842003 391.851898 123.410599 390.580811 125.515625 388.943359 C 127.620644 387.305939 129.15802 386.061615 130.126953 385.208984 C 131.277573 384.196472 132.91864 382.643616 135.052734 380.550781 C 137.186829 378.457916 138.798615 376.931854 139.888672 375.972656 C 141.099854 374.90686 142.240341 374.064911 143.308594 373.447266 L 144.1875 374.445313 L 145.113281 376.048828 C 144.061966 377.296326 142.599533 379.174133 140.724609 381.683594 C 142.364456 384.646118 146.248627 389.609924 152.376953 396.574219 L 183.232422 431.636719 C 185.337402 432.685608 187.600632 432.572937 190.025391 431.298828 C 191.268051 430.635162 193.192841 429.15863 195.796875 426.867188 C 198.580246 420.872009 199.259659 414.684631 197.837891 408.306641 C 197.188736 406.836304 196.594803 404.512085 196.054688 401.333984 C 196.006271 400.302094 195.845474 398.777557 195.574219 396.759766 C 195.82373 396.43277 196.070267 396.162384 196.3125 395.949219 L 197.130859 395.230469 C 198.225739 395.986267 199.305298 396.970459 200.371094 398.181641 C 202.07637 400.119537 204.482101 403.158569 207.589844 407.300781 C 210.697586 411.442993 213.105286 414.483978 214.810547 416.421875 L 213.880859 417.5625 C 213.570786 417.94281 213.286057 418.352112 213.029297 418.792969 C 213.022018 418.90683 212.898483 419.072021 212.65625 419.285156 C 210.536697 421.150299 207.292542 423.843262 202.923828 427.365234 C 198.555115 430.887177 195.310959 433.58017 193.191406 435.445313 L 181.564453 445.677734 C 180.716629 446.423798 179.453629 447.61377 177.777344 449.25 C 176.101074 450.886261 174.808777 452.10495 173.900391 452.904297 C 173.476486 453.277313 172.70108 453.799744 171.572266 454.470703 Z M 226.289063 399.705078 C 220.963028 399.758759 215.899002 397.663361 211.09375 393.419922 C 208.172501 390.832825 204.367233 386.876068 199.677734 381.546875 C 196.746811 378.216125 192.452805 372.05426 186.796875 363.0625 C 185.348373 360.683777 184.313431 358.531219 183.693359 356.605469 C 183.320328 356.181549 182.928864 354.699219 182.519531 352.158203 C 181.809982 342.682098 186.119263 333.8414 195.445313 325.634766 C 202.34903 319.559753 209.173782 316.508942 215.919922 316.482422 C 223.068176 316.424438 229.625305 319.785767 235.59375 326.568359 C 246.358246 338.80127 253.787842 350.478668 257.878906 361.599609 C 261.335358 371.022461 257.611511 380.528961 246.710938 390.121094 C 239.524292 396.445068 232.717026 399.640289 226.289063 399.705078 Z M 234.519531 388.027344 C 237.704468 388.078888 240.962219 386.639923 244.292969 383.708984 C 249.501038 379.126068 251.057632 374.423981 248.964844 369.603516 C 246.421524 363.782654 242.112137 357.421265 236.037109 350.517578 C 229.109436 342.644897 222.28479 335.863495 215.560547 330.175781 C 212.268677 328.022278 209.266464 327.144562 206.554688 327.542969 C 203.842896 327.941376 200.942032 329.500977 197.853516 332.21875 C 192.766571 336.695099 191.236755 341.426483 193.261719 346.414063 C 197.403717 354.051697 203.044724 361.92807 210.185547 370.042969 C 216.580322 377.310028 222.807098 382.736664 228.865234 386.324219 C 230.723724 387.428833 232.608566 387.996429 234.519531 388.027344 Z M 280.382813 359.363281 C 280.055786 359.11377 279.758636 358.837952 279.492188 358.535156 L 278.453125 357.355469 C 278.026794 356.870972 277.419312 356.088898 276.630859 355.009766 C 275.842438 353.930603 275.236847 353.14856 274.810547 352.664063 C 273.798035 351.513458 272.245178 349.870422 270.152344 347.736328 C 268.059509 345.602234 266.506622 343.961151 265.494141 342.810547 C 264.428345 341.599365 262.83429 339.23999 260.714844 335.732422 C 260.850494 335.398132 261.040955 335.123291 261.283203 334.910156 L 262.009766 334.271484 C 262.351288 334.293304 264.961334 335.488281 269.839844 337.857422 C 274.163635 339.962494 279.580597 341.052216 286.091797 341.125 C 290.091034 341.151733 293.373718 340.302277 295.941406 338.580078 C 296.41861 338.267609 296.6875 338.086487 296.748047 338.033203 L 297.566406 337.3125 C 300.291534 334.914459 302.09082 332.25824 302.962891 329.341797 C 304.038483 325.92395 303.456909 322.941925 301.21875 320.398438 C 298.447693 317.249359 294.408386 315.593018 289.103516 315.425781 C 286.993683 315.348206 284.286926 315.68869 280.980469 316.449219 C 278.303802 317.192841 275.599121 317.906799 272.869141 318.589844 C 258.073578 322.046204 248.066147 320.805878 242.84375 314.871094 L 241.564453 313.417969 C 237.247986 308.512695 235.566971 303.062103 236.521484 297.064453 C 237.340332 291.401093 240.233383 286.383423 245.199219 282.013672 L 246.197266 281.134766 C 246.613907 280.87558 246.943298 280.638947 247.185547 280.425781 C 249.699936 278.643005 253.310989 276.70163 258.017578 274.601563 L 260.425781 269.097656 L 261.0625 268.539063 C 261.304718 268.325897 261.600403 268.172119 261.949219 268.080078 L 262.587891 268.806641 C 264.133301 270.562836 264.90625 271.441406 264.90625 271.441406 C 266.923981 273.856506 267.692505 274.791138 267.212891 274.246094 L 268.492188 275.699219 C 269.23822 276.547058 270.405853 277.722748 271.996094 279.224609 C 273.586304 280.726471 274.729126 281.870911 275.421875 282.658203 C 275.63504 282.900421 275.737732 283.077545 275.730469 283.191406 L 279.021484 288.03125 C 278.522491 288.685272 278.091858 289.172455 277.728516 289.492188 C 276.984863 289.501862 274.725555 288.643219 270.949219 286.916016 C 261.95282 282.797913 254.822357 282.571472 249.558594 286.236328 C 249.376907 286.396179 249.076797 286.606049 248.660156 286.865234 L 246.935547 288.384766 C 246.564926 288.818359 246.289093 289.113556 246.107422 289.273438 C 242.287338 293.60202 241.920914 297.522736 245.011719 301.035156 C 247.090012 303.396973 250.635193 304.738739 255.644531 305.058594 C 256.441467 305.109467 260.86319 304.333435 268.910156 302.732422 C 270.123749 302.524139 272.319977 302.149475 275.498047 301.609375 C 276.832764 301.294495 279.262146 300.821594 282.789063 300.189453 C 292.165863 299.244934 298.986847 301.194366 303.25 306.039063 L 304.6875 307.675781 C 309.590149 313.247192 311.428955 319.365082 310.203125 326.03125 C 309.013641 332.128204 305.542175 337.707001 299.789063 342.769531 C 296.397766 345.753754 291.504822 348.556915 285.107422 351.177734 C 284.807037 352.301697 284.10611 353.885254 283.003906 355.929688 L 282.087891 358.1875 L 281.451172 358.746094 C 281.208954 358.959259 280.852753 359.164642 280.382813 359.363281 Z M 327.722656 317.0625 L 327.322266 316.607422 C 327.329529 316.493591 326.891937 315.751923 326.007813 314.380859 C 327.059113 313.133392 328.521576 311.255585 330.396484 308.746094 C 329.015839 306.200226 325.341492 301.534546 319.373047 294.751953 L 295.552734 267.683594 C 289.957306 261.324921 285.742279 257.511078 282.908203 256.244141 L 281.728516 257.283203 C 280.880676 258.029266 279.243134 259.040375 276.818359 260.314453 L 276.830078 260.142578 L 276.03125 259.234375 C 275.825348 258.878296 275.519745 258.286957 275.115234 257.460938 C 275.500397 256.799652 276.056488 256.149231 276.783203 255.509766 C 277.752136 254.657135 279.216827 253.42276 281.177734 251.804688 C 283.138611 250.186646 284.572083 248.977081 285.480469 248.177734 L 305.646484 230.433594 C 306.736542 229.474365 308.292236 227.943848 310.3125 225.84375 C 312.332764 223.743652 313.888458 222.215088 314.978516 221.255859 C 315.281311 220.989441 315.588379 220.665466 315.898438 220.285156 C 316.164886 220.587952 316.623322 220.989258 317.277344 221.488281 C 317.519562 221.275146 318.181396 221.659119 319.261719 222.642578 C 321.209229 224.36731 324.751495 227.53772 329.886719 232.152344 C 330.366302 232.697388 331.008575 233.581421 331.816406 234.804688 C 332.624207 236.027954 333.268433 236.911987 333.748047 237.457031 C 333.249023 238.111023 332.757904 238.651794 332.273438 239.078125 C 329.705811 238.113983 326.406189 236.987488 322.373047 235.701172 C 317.521179 234.705505 311.705414 235.363098 304.927734 237.673828 L 296.480469 245.109375 C 298.597534 247.75943 300.668335 250.233917 302.693359 252.535156 L 314.523438 265.978516 C 315.901733 264.98056 317.136505 264.002197 318.226563 263.042969 L 321.496094 260.166016 C 324.114716 254.96051 325.144958 250.454376 324.587891 246.646484 C 324.776855 246.372772 325.122101 245.907928 325.621094 245.253906 L 326.529297 244.455078 C 327.457031 245.143036 328.426971 246.062256 329.439453 247.212891 C 330.025635 247.879028 330.847717 248.874207 331.90625 250.199219 C 332.964783 251.524261 333.786865 252.519409 334.373047 253.185547 C 334.905945 253.791138 335.722534 254.659485 336.822266 255.787109 C 337.921967 256.914703 338.738586 257.781128 339.271484 258.386719 C 339.857666 259.052856 340.688202 260.361572 341.763672 262.316406 L 342.837891 264.271484 L 342.111328 264.912109 C 341.801239 265.292419 341.556671 265.562805 341.375 265.722656 C 340.752441 265.625763 339.606445 264.994019 337.9375 263.830078 C 336.268555 262.666107 334.757874 261.928223 333.40625 261.613281 C 331.204346 261.18692 328.721375 261.599274 325.955078 262.851563 L 321.867188 266.449219 C 320.595428 267.568298 319.346832 268.772919 318.121094 270.066406 L 335.785156 290.142578 C 337.756866 292.38324 339.675079 293.677765 341.539063 294.025391 C 343.403015 294.373016 345.691284 293.889008 348.404297 292.576172 L 353.673828 287.941406 C 357.094238 281.81546 358.169556 275.711365 356.900391 269.628906 C 355.708649 266.809296 355.189148 264.203308 355.341797 261.8125 L 355.417969 260.617188 C 355.386475 260.215057 355.311584 259.581543 355.195313 258.716797 C 355.800903 258.183899 356.452759 257.824707 357.150391 257.640625 C 359.335266 260.123535 361.986542 263.379822 365.101563 267.408203 C 369.221802 272.70105 371.810608 276.010895 372.869141 277.335938 C 372.498505 277.769501 371.996002 278.480469 371.361328 279.46875 C 371.293518 279.635895 371.138733 279.825897 370.896484 280.039063 C 368.776917 281.904205 365.501556 284.623993 361.072266 288.199219 C 356.643005 291.774475 353.369537 294.494232 351.25 296.359375 L 338.167969 307.869141 C 337.259583 308.668488 335.89212 309.953186 334.064453 311.722656 C 332.236755 313.492126 330.838074 314.803619 329.869141 315.65625 C 329.324097 316.135864 328.609222 316.604706 327.722656 317.0625 Z"/>
</svg>
