<?xml version="1.0" encoding="UTF-8"?>
<!-- Generated by Pixelmator Pro 2.4.5 -->
<svg width="500" height="750" viewBox="0 0 500 750" xmlns="http://www.w3.org/2000/svg" xmlns:xlink="http://www.w3.org/1999/xlink">
    <path id="Ellipse" fill="#000000" fill-rule="evenodd" stroke="none" d="M 185.488205 265.952332 C 54.202309 380.890076 -23.54018 506.83136 11.845488 547.250122 C 47.231152 587.668823 182.345139 527.259277 313.631042 412.321533 C 444.916931 297.383789 522.659424 171.442505 487.273773 131.023743 C 451.888092 90.60498 316.774109 151.014587 185.488205 265.952332 Z"/>
    <path id="WIN" fill="#ffffff" fill-rule="evenodd" stroke="none" d="M 196.820313 433.380859 C 196.364914 433.351776 195.58902 432.958923 194.494141 432.203125 C 191.650391 430.192566 186.69519 427.245941 179.626953 423.365234 C 178.912369 422.919525 177.479111 422.086609 175.328125 420.863281 L 159.857422 412.072266 C 157.653137 410.788391 154.840179 409.181122 151.419922 407.248047 L 133.042969 396.986328 C 130.049011 395.53772 127.530289 394.690002 125.488281 394.445313 L 124.580078 395.246094 C 123.974487 395.778992 122.755585 396.529144 120.921875 397.498047 C 120.282402 396.771332 119.713348 395.82132 119.216797 394.646484 C 119.42028 394.14505 119.855339 393.599854 120.521484 393.013672 C 121.672104 392.00119 123.422272 390.571289 125.769531 388.720703 C 128.116776 386.870087 129.865005 385.438293 131.015625 384.425781 C 132.166245 383.413269 133.838531 381.833618 136.033203 379.6875 C 138.227859 377.541351 139.900162 375.961731 141.050781 374.949219 C 142.080292 374.043304 143.065994 373.391388 144.005859 372.994141 L 145.443359 374.628906 C 145.186584 375.069763 144.73764 375.841217 144.095703 376.943359 L 142.476563 379.498047 C 142.716339 381.113708 143.50174 382.679382 144.833984 384.193359 L 145.552734 385.009766 C 146.831696 386.463196 154.628143 391.477936 168.941406 400.050781 C 171.69313 401.712524 176.619034 404.684021 183.71875 408.966797 C 185.239929 410.207062 187.524567 412.010315 190.574219 414.376953 C 188.537125 410.474579 186.922195 407.114532 185.730469 404.294922 C 184.248093 400.656586 181.046951 393.963806 176.125 384.21875 C 174.598999 381.263489 172.87886 377.78241 170.962891 373.773438 L 170.882813 373.681641 C 166.854538 371.423981 164.535736 370.133179 163.927734 369.808594 C 160.933792 368.359985 158.415054 367.514221 156.373047 367.269531 L 155.464844 368.068359 C 154.859253 368.601257 153.640366 369.35141 151.806641 370.320313 C 151.167175 369.593597 150.598114 368.643585 150.101563 367.46875 C 150.305054 366.967316 150.740097 366.424072 151.40625 365.837891 C 152.55687 364.825378 153.943893 363.713074 155.564453 362.501953 C 155.692841 362.281525 155.997955 361.957581 156.482422 361.53125 C 158.345215 360.106964 161.063736 357.823792 164.636719 354.679688 C 165.915726 353.446777 168.170914 351.245972 171.402344 348.080078 C 171.826263 347.707062 172.245468 347.391998 172.662109 347.132813 C 173.442108 346.553894 174.18573 346.114349 174.890625 345.816406 L 176.330078 347.453125 C 176.073303 347.893982 175.622406 348.665436 174.980469 349.767578 L 173.361328 352.320313 C 173.601105 353.936005 174.386505 355.501648 175.71875 357.015625 L 176.4375 357.832031 C 177.716446 359.285431 185.512894 364.300171 199.826172 372.873047 C 202.577881 374.53479 207.503799 377.506256 214.603516 381.789063 C 216.12471 383.029327 218.409348 384.83255 221.458984 387.199219 C 219.421906 383.296844 217.809189 379.907776 216.621094 377.03125 C 215.433014 374.154724 212.229645 367.490967 207.009766 357.041016 C 205.796234 354.562958 203.59436 350.107544 200.404297 343.673828 C 199.236786 341.370178 198.227631 339.734589 197.375 338.765625 L 196.734375 338.039063 C 195.508713 336.64621 193.990097 335.833679 192.175781 335.603516 L 191.345703 336.494141 C 190.451859 337.065796 189.232956 337.815948 187.6875 338.746094 C 186.834869 337.777161 186.263321 336.883179 185.972656 336.064453 C 186.297256 335.456451 186.761597 334.886414 187.367188 334.353516 C 188.873901 333.135132 191.592422 330.851929 195.521484 327.501953 C 196.369308 326.75589 197.526184 325.6297 198.994141 324.123047 C 200.462097 322.616394 201.560394 321.541809 202.287109 320.902344 C 202.953247 320.316162 203.517807 319.981262 203.980469 319.896484 L 204.859375 320.896484 L 205.785156 322.498047 C 204.976089 323.532349 203.786972 325.171021 202.214844 327.414063 C 202.784027 330.136749 204.863419 335.614594 208.453125 343.845703 L 224.148438 379.998047 C 225.897263 383.939178 227.989487 388.331573 230.423828 393.173828 C 230.501328 393.750366 231.044617 394.855896 232.054688 396.492188 C 233.064758 398.128479 233.598114 399.1633 233.65625 399.595703 C 233.714371 400.028076 233.65239 400.324493 233.470703 400.484375 C 233.349594 400.590942 233.10202 400.674591 232.726563 400.736328 C 232.351105 400.798096 232.103531 400.881683 231.982422 400.988281 C 231.861298 401.094849 231.845459 401.323059 231.9375 401.671875 C 231.9375 401.671875 231.567429 402.105499 230.826172 402.972656 L 229.714844 404.273438 C 229.47261 404.486603 229.136261 404.837341 228.705078 405.324219 L 227.705078 406.203125 C 227.249695 406.174072 226.47377 405.781189 225.378906 405.025391 C 222.535141 403.014801 217.579956 400.068176 210.511719 396.1875 C 209.79715 395.741791 208.363876 394.908875 206.212891 393.685547 L 199.179688 389.720703 C 194.269714 386.949493 188.643814 383.732971 182.304688 380.070313 L 181.222656 379.572266 L 193.263672 407.175781 C 195.005234 411.230774 197.097473 415.623138 199.539063 420.351563 C 199.616562 420.92807 200.159851 422.03363 201.169922 423.669922 C 202.179993 425.306213 202.713364 426.341064 202.771484 426.773438 C 202.82962 427.205811 202.767609 427.502258 202.585938 427.662109 C 202.464813 427.768707 202.217255 427.852295 201.841797 427.914063 C 201.466339 427.9758 201.218781 428.059418 201.097656 428.166016 C 200.976547 428.272583 200.960693 428.500793 201.052734 428.849609 C 201.052734 428.849609 200.682648 429.283234 199.941406 430.150391 L 198.830078 431.451172 C 198.587845 431.664337 198.251495 432.013123 197.820313 432.5 L 196.820313 433.380859 Z M 262.523438 374.435547 L 262.125 373.980469 C 262.071716 373.919922 261.632172 373.178253 260.808594 371.753906 C 261.859924 370.506439 263.32428 368.626678 265.199219 366.117188 C 263.818542 363.57132 260.144226 358.907623 254.175781 352.125 L 231.154297 325.962891 C 225.185852 319.180298 221.049683 315.030548 218.746094 313.511719 C 217.699646 313.787842 216.410309 314.518921 214.876953 315.707031 C 213.343613 316.895142 212.258163 317.554749 211.621094 317.685547 L 211.140625 317.140625 C 210.828156 316.663422 210.393051 315.865692 209.835938 314.744141 C 210.334946 314.090118 210.917847 313.468994 211.583984 312.882813 C 212.795166 311.817017 214.695663 310.253204 217.285156 308.189453 C 219.874649 306.125671 221.806396 304.533173 223.078125 303.414063 C 224.107635 302.508148 225.627655 301.062408 227.640625 299.076172 C 229.65361 297.089905 231.204865 295.617432 232.294922 294.658203 C 233.082199 293.965454 233.738495 293.550171 234.261719 293.412109 L 235.140625 294.410156 L 236.066406 296.013672 C 234.961807 297.200562 233.526154 299.109619 231.757813 301.740234 C 233.237793 304.521088 236.880875 309.211578 242.689453 315.8125 L 271.626953 348.695313 C 272.547424 349.497131 273.755463 350.502899 275.25 351.712891 C 276.744537 352.922852 278.123749 353.454376 279.390625 353.306641 C 280.088257 353.122559 281.716919 352.225555 284.277344 350.617188 C 284.694 350.358002 285.047699 350.208679 285.335938 350.169922 L 285.814453 350.716797 C 285.974304 350.898468 286.355835 351.635712 286.958984 352.931641 C 286.459961 353.585663 285.877075 354.206787 285.210938 354.792969 C 283.939209 355.912048 282.023804 357.517303 279.460938 359.611328 C 276.898102 361.705383 275.01001 363.285767 273.798828 364.351563 C 272.708771 365.310791 271.157532 366.783264 269.144531 368.769531 C 267.131561 370.755768 265.609558 372.203461 264.580078 373.109375 C 264.095612 373.535706 263.410034 373.977753 262.523438 374.435547 Z M 295.453125 345.298828 L 294.652344 344.388672 C 294.446442 344.032593 294.111542 343.470001 293.646484 342.697266 C 293.857239 342.082001 294.463928 341.305328 295.466797 340.369141 C 296.469666 339.432922 297.076355 338.656281 297.287109 338.041016 C 295.661804 334.8508 291.206085 328.994965 283.919922 320.470703 L 273.390625 308.138672 C 272.537994 307.169708 270.782227 305.114441 268.125 301.972656 C 265.947388 299.375885 264.193542 297.320618 262.861328 295.806641 L 260.0625 292.626953 C 256.225616 288.266693 253.08519 285.551178 250.638672 284.480469 L 249.457031 285.519531 C 248.54866 286.318878 246.908585 287.386047 244.537109 288.720703 L 244.457031 288.628906 C 244.084015 288.205017 243.849304 287.87561 243.75 287.640625 C 243.338226 286.928467 243.032608 286.337128 242.833984 285.867188 C 243.098038 285.312469 243.654129 284.664032 244.501953 283.917969 C 245.531448 283.012054 247.112747 281.726593 249.248047 280.0625 C 251.383362 278.398407 252.935349 277.13974 253.904297 276.287109 L 259.71875 271.171875 C 259.960968 270.95871 260.259155 270.748871 260.615234 270.542969 C 263.730316 271.88501 268.55246 273.822083 275.078125 276.353516 C 276.582367 276.963989 279.201874 277.9888 282.939453 279.427734 C 290.770752 282.099701 304.771484 287.079987 324.939453 294.369141 L 292.285156 259.275391 C 290.117218 257.422272 288.053375 256.176636 286.09375 255.537109 C 284.642792 254.987213 282.622681 255.744843 280.033203 257.808594 C 279.66983 258.128326 279.102814 258.519287 278.330078 258.984375 L 277.529297 258.076172 C 277.209564 257.71283 276.948059 257.354126 276.742188 256.998047 L 277.896484 255.013672 C 278.281647 254.352386 278.868988 253.675171 279.65625 252.982422 C 280.504089 252.236359 281.799622 251.175415 283.544922 249.800781 C 285.290222 248.426178 286.587738 247.367157 287.435547 246.621094 C 288.101685 246.034912 289.047699 245.094269 290.273438 243.800781 C 291.499146 242.507263 292.44519 241.56665 293.111328 240.980469 C 293.777466 240.394287 294.458618 240.010254 295.15625 239.826172 L 295.556641 240.279297 C 295.86911 240.7565 296.337952 241.473328 296.962891 242.427734 C 296.812683 242.989716 296.293304 243.742096 295.404297 244.685547 C 294.515289 245.629028 293.937866 246.378906 293.673828 246.933594 C 295.054474 249.479492 299.166443 254.884827 306.011719 263.152344 C 318.697083 278.42276 329.837524 291.509521 339.429688 302.410156 C 338.768341 304.711334 338.384949 306.658081 338.283203 308.251953 C 336.35498 310.700867 335.150482 312.138123 334.666016 312.564453 L 333.484375 313.603516 C 332.125458 313.402435 329.971344 312.664825 327.023438 311.390625 C 322.852234 309.581085 320.709564 308.673279 320.595703 308.666016 C 313.166534 305.962585 303.581207 302.578552 291.837891 298.513672 C 280.489441 294.531158 271.007782 290.838562 263.394531 287.4375 L 291.597656 318.388672 C 294.056274 321.060516 297.309814 324.268677 301.357422 328.013672 C 302.939178 329.200623 304.92807 329.812775 307.326172 329.851563 L 308.416016 328.892578 C 309.324402 328.093231 310.72934 327.126251 312.630859 325.990234 L 313.03125 326.443359 C 313.183838 326.738892 313.313354 326.947235 313.419922 327.068359 C 313.625824 327.424438 313.900177 328.042572 314.244141 328.921875 C 313.745117 329.575897 313.132935 330.223785 312.40625 330.863281 C 311.558411 331.609314 310.244049 332.709747 308.464844 334.167969 C 306.685608 335.62616 305.373199 336.728546 304.525391 337.474609 C 303.738129 338.167358 302.569122 339.249908 301.017578 340.722656 C 299.466064 342.195374 298.265808 343.304749 297.417969 344.050781 C 297.054626 344.370544 296.400238 344.78775 295.453125 345.298828 Z M 359.820313 287.984375 C 359.371246 287.978485 358.896759 287.947906 358.396484 287.894531 C 355.728302 287.609863 353.833923 286.832275 352.714844 285.560547 C 351.062866 283.683228 350.691162 281.001312 351.599609 277.515625 C 351.975098 276.110687 352.648254 274.981567 353.617188 274.128906 C 353.98056 273.809174 354.502441 273.671204 355.185547 273.714844 C 358.913513 271.723755 362.084106 272.212311 364.695313 275.179688 L 364.855469 275.361328 C 364.901489 275.535736 364.950623 275.654297 365.003906 275.714844 C 365.987335 277.320862 366.448792 279.249939 366.390625 281.503906 C 366.332428 283.757874 365.607697 285.496979 364.214844 286.722656 C 363.230774 287.588623 361.766235 288.009949 359.820313 287.984375 Z M 347.753906 271.9375 C 346.721252 271.900879 345.42392 271.195374 343.861328 269.820313 C 340.840759 266.99826 335.385437 262.020599 327.496094 254.886719 L 317.853516 246.125 C 316.179718 244.589233 312.896423 241.837463 308.005859 237.867188 C 307.24527 237.24707 306.758087 236.816406 306.544922 236.574219 C 305.905457 235.847473 305.494629 235.135132 305.310547 234.4375 C 305.279053 234.0354 305.204132 233.401855 305.087891 232.537109 C 305.04187 232.362671 305.111298 232.195007 305.292969 232.035156 C 305.56189 230.509094 307.452423 228.200195 310.964844 225.109375 C 314.598389 221.911987 317.374023 220.488525 319.294922 220.839844 C 320.31955 220.905273 321.178345 221.331909 321.871094 222.119141 L 321.951172 222.210938 C 322.043213 222.559753 322.223785 222.884766 322.490234 223.1875 C 323.078827 224.711182 324.241302 227.072021 325.980469 230.269531 C 326.665955 231.170593 329.302887 235.082825 333.890625 242.005859 L 339.525391 250.423828 C 339.891144 250.961609 342.230896 254.5979 346.544922 261.332031 C 347.024536 261.877075 347.660309 263.118042 348.451172 265.054688 C 349.242004 266.991364 349.589111 268.272003 349.492188 268.894531 L 349.361328 270.943359 L 349.158203 271.445313 C 348.762695 271.793365 348.29483 271.956696 347.753906 271.9375 Z"/>
</svg>
